<?xml version="1.0" standalone="no"?>
<!DOCTYPE svg PUBLIC "-//W3C//DTD SVG 1.1//EN" "http://www.w3.org/Graphics/SVG/1.1/DTD/svg11.dtd" >
<svg>
<metadata>
Created by FontForge 20110222 at Tue Feb 10 04:49:10 2015
 By deploy user
Copyright (c) 1992, 1994, 1997 Adobe Systems Incorporated.  All Rights Reserved.Myriad is a trademark of Adobe Systems Incorporated which may be registered in certain jurisdictions.
</metadata>
<defs>
<font id="Myriad-Condensed" horiz-adv-x="385" >
  <font-face 
    font-family="Myriad-Condensed"
    font-weight="400"
    font-stretch="expanded"
    units-per-em="1000"
    panose-1="2 11 5 0 0 0 0 0 0 0"
    ascent="800"
    descent="-200"
    x-height="484"
    cap-height="674"
    bbox="-45 -250 970 824"
    underline-thickness="50"
    underline-position="-50"
    unicode-range="U+0020-2122"
  />
<missing-glyph horiz-adv-x="502" 
d="M-1 0h500v500h-500v-500zM9 10v480h480v-480h-480z" />
    <glyph glyph-name=".notdef" horiz-adv-x="502" 
d="M-1 0h500v500h-500v-500zM9 10v480h480v-480h-480z" />
    <glyph glyph-name="space" unicode=" " horiz-adv-x="157" 
 />
    <glyph glyph-name="exclam" unicode="!" horiz-adv-x="204" 
d="M134 188l11 486h-86l10 -486h65zM102 -8q23 0 36 15t13 39q0 25 -13.5 40t-35.5 15q-21 0 -35 -15t-14 -40q0 -24 14 -39t34 -15h1z" />
    <glyph glyph-name="quotedbl" unicode="&#x22;" horiz-adv-x="309" 
d="M49 683l14 -233h44l14 233h-72zM189 683l13 -233h45l13 233h-71z" />
    <glyph glyph-name="numbersign" unicode="#" 
d="M145 251l19 153h77l-19 -153h-77zM113 0l25 201h77l-26 -201h52l26 201h76v50h-70l19 153h71v51h-64l25 195h-50l-25 -195h-78l25 195h-51l-25 -195h-76v-51h69l-19 -153h-72v-52h65l-26 -199h52z" />
    <glyph glyph-name="dollar" unicode="$" 
d="M217 -84v106q53 12 86 55t33 111q0 57 -27.5 100.5t-86.5 77.5q-54 32 -74 55t-20 65q0 35 23 61t62 26q26 0 47.5 -7t38.5 -18l20 59q-16 11 -42 19t-54 8v91h-56v-97q-48 -12 -80.5 -54t-32.5 -100q0 -57 32.5 -94t90.5 -71q45 -27 65.5 -57.5t20.5 -72.5
q0 -44 -24.5 -72.5t-67.5 -28.5q-27 0 -53.5 9t-48.5 23l-18 -60q20 -13 49.5 -23t61.5 -11v-100h55z" />
    <glyph glyph-name="percent" unicode="%" horiz-adv-x="645" 
d="M153 658q-53 0 -88 -53.5t-35 -144.5q0 -89 34.5 -142.5t88.5 -53.5q51 0 86.5 50.5t35.5 147.5q0 89 -33 142.5t-88 53.5h-1zM154 610q19 0 31.5 -13.5t19.5 -35.5t9.5 -48.5t2.5 -52.5q0 -27 -3 -52.5t-10 -47.5t-19.5 -35t-30.5 -13t-30.5 13t-20 35t-10.5 47.5
t-3 53.5q0 27 3 53t10.5 47.5t20 35t29.5 13.5h1zM493 387q-53 0 -88 -53.5t-35 -144.5q0 -90 34 -143t89 -53q51 0 86.5 50.5t35.5 146.5q0 89 -33 143t-88 54h-1zM494 339q18 0 30.5 -13.5t19.5 -35.5t10 -48t3 -53t-3 -53t-10 -48t-19.5 -35t-30.5 -13q-17 0 -29.5 13.5
t-20 35.5t-11 48t-3.5 53t3 53t10 47.5t19.5 35t30.5 13.5h1zM173 -14l346 677h-49l-346 -677h49z" />
    <glyph glyph-name="ampersand" unicode="&#x26;" horiz-adv-x="491" 
d="M474 -1q-38 51 -57.5 78t-28.5 40q31 47 49 111.5t24 132.5h-68q-2 -46 -11.5 -99t-29.5 -95q-36 49 -71.5 103t-56.5 89v3q62 45 88.5 87.5t26.5 93.5q0 66 -34.5 102.5t-83.5 36.5q-63 0 -100.5 -46t-37.5 -111q0 -40 12.5 -77t36.5 -74v-3q-103 -78 -103 -193
q0 -76 44 -131t124 -55q41 0 79.5 18.5t65.5 52.5q8 -12 14.5 -21t20.5 -28q9 -12 11 -15h86zM209 53q-50 0 -78 39.5t-28 94.5q0 42 17 77t43 60q82 -125 146 -212q-40 -59 -99 -59h-1zM215 625q30 0 44 -25t14 -60q0 -73 -80 -133q-20 32 -29 60.5t-9 62.5q0 42 15.5 68.5
t43.5 26.5h1z" />
    <glyph glyph-name="quotesingle" unicode="'" horiz-adv-x="170" 
d="M49 683l14 -233h44l14 233h-72z" />
    <glyph glyph-name="parenleft" unicode="(" horiz-adv-x="253" 
d="M168 692q-45 -66 -77 -168.5t-33 -237.5q0 -134 32 -236t78 -170h60q-47 75 -75.5 177t-28.5 228q0 128 28.5 230.5t75.5 176.5h-60z" />
    <glyph glyph-name="parenright" unicode=")" horiz-adv-x="253" 
d="M85 -120q46 68 77.5 169.5t32.5 237.5q0 135 -32 237t-78 168h-60q47 -74 75.5 -176t28.5 -229t-28.5 -230t-75.5 -177h60z" />
    <glyph glyph-name="asterisk" unicode="*" horiz-adv-x="373" 
d="M244 682l-57 -131h-2l-60 128l-52 -30l83 -116l-1 -2l-131 16v-61l133 17v-1l-85 -120l51 -33l60 134l2 1l59 -132l56 32l-87 115v2l135 -15v61l-135 -17v2l85 120z" />
    <glyph glyph-name="plus" unicode="+" horiz-adv-x="596" 
d="M270 532v-238h-230v-54h230v-240h56v240h230v54h-230v238h-56z" />
    <glyph glyph-name="comma" unicode="," horiz-adv-x="194" 
d="M70 -119q10 17 22 43t26 61.5t25 69t19 62.5l-87 -10q-4 -25 -10.5 -57.5t-14 -63t-16.5 -61t-17 -51.5z" />
    <glyph glyph-name="hyphen" unicode="-" horiz-adv-x="279" 
d="M30 291v-60h219v60h-219z" />
    <glyph glyph-name="period" unicode="." horiz-adv-x="194" 
d="M49 50q0 -26 14.5 -42t36.5 -16q24 0 37.5 16t13.5 42t-14 42t-37 16q-21 0 -36 -16.5t-15 -41.5z" />
    <glyph glyph-name="slash" unicode="/" horiz-adv-x="281" 
d="M65 -40l216 722h-58l-215 -722h57z" />
    <glyph glyph-name="zero" unicode="0" 
d="M190 -8q36 0 66.5 19.5t52.5 58.5q49 87 49 256q0 157 -41 244.5t-119 87.5q-81 0 -126 -86t-45 -248q0 -158 43 -245t119 -87h1zM194 58q-45 0 -67.5 72t-22.5 195t22.5 195t67.5 72q44 0 65.5 -72.5t21.5 -194.5q0 -124 -21 -195.5t-65 -71.5h-1z" />
    <glyph glyph-name="one" unicode="1" 
d="M188 0h76v650h-64l-137 -80l15 -60l108 62h2v-572z" />
    <glyph glyph-name="two" unicode="2" 
d="M345 0v68h-217v2l44 60q77 105 118.5 186.5t41.5 163.5q0 79 -39 128.5t-116 49.5q-40 0 -73 -13t-54 -31l19 -58l7 5q21 14 40.5 22.5t46.5 8.5q45 0 69 -30.5t24 -85.5q0 -42 -13.5 -85t-36 -85t-47.5 -78.5t-62 -88.5q-9 -13 -10 -14l-55 -75v-50h313z" />
    <glyph glyph-name="three" unicode="3" 
d="M28 22q20 -14 51.5 -22t62.5 -8q86 0 136 55t50 137q0 71 -32.5 114t-81.5 56v2q47 22 72 62.5t25 89.5q0 65 -38.5 107.5t-105.5 42.5q-35 0 -66 -11t-51 -26l17 -58q19 14 39 22.5t42 8.5q39 0 62.5 -26t23.5 -74q0 -29 -11 -50.5t-29 -36t-38 -21.5t-39 -8h-15v-58h18
q60 0 95.5 -35.5t35.5 -98.5q0 -60 -30.5 -95t-81.5 -35q-26 0 -50.5 8t-43.5 19z" />
    <glyph glyph-name="four" unicode="4" 
d="M304 0v179h71v63h-71v408h-75l-211 -419v-52h216v-179h70zM91 242v2l90 187q15 32 27 58t28 65h4v-8q-6 -79 -6 -120v-184h-143z" />
    <glyph glyph-name="five" unicode="5" 
d="M333 650h-233l-41 -301q18 3 51 3q67 0 107 -36t40 -110q0 -71 -35.5 -110.5t-87.5 -39.5q-25 0 -49 8t-42 18l-17 -62q19 -13 49.5 -20.5t60.5 -7.5q43 0 79 16.5t63 46.5t41 70.5t14 88.5q0 94 -54 148q-24 24 -59.5 36.5t-64.5 12.5q-16 0 -24 -2l27 173h175v68z" />
    <glyph glyph-name="six" unicode="6" 
d="M319 658h-6q-26 -3 -43 -6q-44 -9 -86.5 -36t-70.5 -67q-40 -54 -62 -128t-22 -165q0 -117 44 -190.5t126 -73.5q75 0 117.5 63t42.5 159q0 92 -38.5 146t-101.5 54q-35 0 -62.5 -16.5t-47.5 -45.5h-3q7 41 19 78t31.5 69t48.5 55t68 32q26 6 46 7v65zM199 52
q-41 0 -67 49t-27 145q0 25 6 39q14 35 36.5 52.5t47.5 17.5q41 0 64 -37.5t23 -109.5q0 -79 -23 -117.5t-59 -38.5h-1z" />
    <glyph glyph-name="seven" unicode="7" 
d="M37 650v-68h234v-2l-206 -580h75l210 604v46h-313z" />
    <glyph glyph-name="eight" unicode="8" 
d="M200 658q-62 0 -106.5 -44.5t-44.5 -117.5q0 -42 22.5 -81.5t62.5 -67.5l1 -2q-47 -33 -77 -78.5t-30 -107.5q0 -66 43 -116.5t119 -50.5q74 0 120.5 51.5t46.5 128.5q0 56 -28 100.5t-76 76.5v3q44 30 65.5 69.5t21.5 83.5q0 61 -36.5 107t-102.5 46h-1zM193 49
q-41 0 -64.5 34t-23.5 89q0 43 22.5 82t61.5 63q44 -29 68.5 -63.5t24.5 -86.5q0 -58 -25 -88t-63 -30h-1zM198 601q34 0 53 -28.5t19 -76.5q0 -36 -17.5 -67t-47.5 -53q-37 24 -58.5 52t-21.5 73q0 44 20 72t52 28h1z" />
    <glyph glyph-name="nine" unicode="9" 
d="M67 -8q28 0 54 5q44 10 83 35.5t67 63.5q86 115 86 301q0 114 -41.5 187.5t-121.5 73.5q-36 0 -66.5 -17t-52.5 -47.5t-33.5 -70.5t-11.5 -85q0 -87 40 -140t102 -53q33 0 59.5 15t45.5 40h3q-8 -61 -27.5 -107t-48.5 -78q-37 -38 -89 -51q-25 -6 -48 -6v-66zM190 598
q41 0 65.5 -48.5t24.5 -146.5q0 -15 -1.5 -24t-4.5 -18q-12 -27 -34 -42.5t-46 -15.5q-40 0 -64 36t-24 106q0 77 25 115t58 38h1z" />
    <glyph glyph-name="colon" unicode=":" horiz-adv-x="194" 
d="M100 359q24 0 37 15.5t13 40.5q0 26 -13.5 41.5t-36.5 15.5q-21 0 -35.5 -16t-14.5 -41t14 -40.5t35 -15.5h1zM99 -8q24 0 37 15.5t13 40.5q0 26 -13.5 41.5t-36.5 15.5q-21 0 -35.5 -16t-14.5 -41t14 -40.5t35 -15.5h1z" />
    <glyph glyph-name="semicolon" unicode=";" horiz-adv-x="194" 
d="M69 -119q10 17 22 43t26 61.5t25 69t19 62.5l-85 -10q-4 -25 -10.5 -57.5t-14 -63t-16.5 -61t-17 -51.5zM111 359q24 0 37 15.5t13 40.5q0 26 -13.5 41.5t-36.5 15.5q-21 0 -35.5 -16t-14.5 -41t14 -40.5t35 -15.5h1z" />
    <glyph glyph-name="less" unicode="&#x3c;" horiz-adv-x="596" 
d="M66 242l464 -242v66l-388 199v2l388 198v67l-464 -242v-48z" />
    <glyph glyph-name="equal" unicode="=" horiz-adv-x="596" 
d="M556 336v55h-516v-55h516zM556 147v55h-516v-55h516z" />
    <glyph glyph-name="greater" unicode="&#x3e;" horiz-adv-x="596" 
d="M530 295l-464 237v-66l400 -199v-2l-400 -199v-66l464 237v58z" />
    <glyph glyph-name="question" unicode="?" horiz-adv-x="309" 
d="M173 184l-1 17q-2 20 -2 36q0 35 9 64t28 63q2 4 14 23q30 48 45.5 83.5t15.5 77.5q0 59 -34.5 98.5t-104.5 39.5q-29 0 -57 -8t-42 -18l16 -60q25 19 66 19q35 0 56 -20t21 -61q0 -34 -11 -61t-38 -72q-6 -11 -9 -16q-45 -74 -45 -149q0 -21 3 -41l2 -15h68zM135 -8
q23 0 36.5 15t13.5 40q0 26 -13.5 41.5t-36.5 15.5q-21 0 -35.5 -16t-14.5 -41q0 -24 14 -39.5t35 -15.5h1z" />
    <glyph glyph-name="at" unicode="@" horiz-adv-x="590" 
d="M348 323q-9 -46 -37 -83t-58 -37q-18 0 -29 15.5t-11 47.5q0 37 10.5 74.5t29 67.5t43.5 48t53 18q19 0 28 -5zM409 61q-31 -16 -60 -24t-63 -8q-97 0 -151.5 63.5t-54.5 183.5q0 80 21 148t58.5 117.5t85 76.5t99.5 27q86 0 128.5 -57.5t42.5 -162.5q0 -98 -28.5 -163
t-66.5 -65q-28 0 -28 48q0 23 7 57l40 202q-13 6 -32 10t-38 4q-51 0 -91 -23t-67.5 -60.5t-41.5 -82.5t-14 -88q0 -52 22.5 -80.5t58.5 -28.5q28 0 57 18.5t52 61.5h3q0 -41 15.5 -60.5t42.5 -19.5q69 0 111.5 75.5t42.5 213.5q0 107 -55 173.5t-154 66.5q-66 0 -124 -32
t-101 -88.5t-67 -130.5t-24 -156q0 -140 67 -214t171 -74q88 0 148 38z" />
    <glyph glyph-name="A" unicode="A" horiz-adv-x="435" 
d="M290 202l45 -202h76l-150 674h-85l-154 -674h74l45 202h149zM152 264l35 171q7 35 14 75t13 79h4q8 -48 14.5 -86t12.5 -68l35 -171h-128z" />
    <glyph glyph-name="B" unicode="B" horiz-adv-x="416" 
d="M60 3q18 -3 42.5 -5t58.5 -2q60 0 105 15t73 46q48 53 48 134q0 66 -33 111t-92 61v2q49 19 76.5 58.5t27.5 91.5q0 74 -44 115q-26 25 -63.5 36t-85.5 11q-61 0 -113 -13v-661zM137 612q15 5 41 5q58 0 84.5 -30t26.5 -80q0 -52 -34.5 -85.5t-82.5 -33.5h-35v224z
M137 329h34q58 -1 97.5 -36.5t39.5 -101.5q0 -64 -35.5 -99t-96.5 -35q-21 0 -39 4v268z" />
    <glyph glyph-name="C" unicode="C" horiz-adv-x="373" 
d="M342 77q-13 -7 -32 -11t-39 -4q-32 0 -60.5 14.5t-50.5 46.5t-34.5 85.5t-12.5 127.5t13.5 127.5t36.5 86t50 47.5t56 15q23 0 37.5 -3.5t30.5 -10.5l17 65q-26 17 -84 17q-42 0 -84 -18.5t-77 -59.5t-56 -109.5t-21 -163.5q0 -166 61.5 -250.5t164.5 -84.5q62 0 96 18z
" />
    <glyph glyph-name="D" unicode="D" horiz-adv-x="445" 
d="M60 3q32 -7 86 -7q122 0 186 73q36 39 58.5 108t22.5 176q0 100 -24.5 168.5t-66.5 104.5q-57 51 -158 51q-61 0 -104 -13v-661zM137 610q13 4 36 4q80 0 120 -67t40 -196q0 -82 -13.5 -139t-37 -90t-53 -47t-63.5 -14q-18 0 -29 2v547z" />
    <glyph glyph-name="E" unicode="E" horiz-adv-x="354" 
d="M306 385h-169v222h180v67h-257v-674h269v67h-192v253h169v65z" />
    <glyph glyph-name="F" unicode="F" horiz-adv-x="345" 
d="M60 0h77v306h168v65h-168v236h180v67h-257v-674z" />
    <glyph glyph-name="G" unicode="G" horiz-adv-x="436" 
d="M392 352h-160v-64h87v-220q-16 -8 -47 -8q-32 0 -60.5 14.5t-51 46.5t-35.5 85.5t-13 128.5t15 128.5t40 86t56 47t64 14.5q46 0 78 -16l17 66q-36 19 -96 19q-47 0 -91.5 -19t-81.5 -61t-59 -110t-22 -162q0 -91 21.5 -159.5t59.5 -108.5q32 -36 72 -51t87 -15
q30 0 63 6.5t57 16.5v335z" />
    <glyph glyph-name="H" unicode="H" horiz-adv-x="463" 
d="M60 674v-674h77v315h189v-315h77v674h-77v-289h-189v289h-77z" />
    <glyph glyph-name="I" unicode="I" horiz-adv-x="199" 
d="M60 674v-674h77v674h-77z" />
    <glyph glyph-name="J" unicode="J" horiz-adv-x="265" 
d="M134 189q0 -76 -21 -102.5t-66 -26.5q-24 0 -37 4l-7 -65q18 -7 50 -7q77 0 117.5 45t40.5 153v484h-77v-485z" />
    <glyph glyph-name="K" unicode="K" horiz-adv-x="404" 
d="M60 0h77v260l38 65l138 -325h83l-169 386l165 288h-85l-126 -239q-19 -39 -42 -81h-2v320h-77v-674z" />
    <glyph glyph-name="L" unicode="L" horiz-adv-x="344" 
d="M60 0h267v65h-190v609h-77v-674z" />
    <glyph glyph-name="M" unicode="M" horiz-adv-x="599" 
d="M482 0h72l-39 674h-86l-76 -308q-20 -82 -30.5 -130.5t-19.5 -101.5h-3q-10 53 -21 101t-33 131l-79 308h-83l-40 -674h69l13 285v7q5 107 6.5 160t1.5 102h3q15 -92 55 -247l79 -303h49l83 316q29 109 54 234h4v-24q-1 -21 -1 -26q0 -45 2.5 -99.5t5.5 -114.5z" />
    <glyph glyph-name="N" unicode="N" horiz-adv-x="465" 
d="M130 0v233q0 104 -1.5 178.5t-6.5 141.5h2q28 -98 80 -229l128 -324h73v674h-70v-241q0 -86 2 -155.5t7 -154.5h-2q-15 49 -34.5 102.5t-50.5 132.5l-124 316h-73v-674h70z" />
    <glyph glyph-name="O" unicode="O" horiz-adv-x="446" 
d="M220 -8q41 0 76.5 19.5t62 62t41 109.5t14.5 159q0 161 -48.5 250.5t-135.5 89.5q-90 0 -144 -90t-54 -254q0 -167 50.5 -256.5t136.5 -89.5h1zM223 60q-31 0 -52.5 23t-34.5 63t-18.5 89t-5.5 103t5.5 102.5t18.5 88t34.5 62.5t52.5 23q32 0 53.5 -24t34 -64t18 -88
t5.5 -99q0 -53 -5.5 -102t-18 -89.5t-34 -64t-52.5 -23.5h-1z" />
    <glyph glyph-name="P" unicode="P" horiz-adv-x="399" 
d="M60 0h77v276q11 -1 34 -1q47 0 89.5 19.5t69.5 55.5q20 27 30.5 60t10.5 78q0 91 -50 139q-50 50 -149 50q-62 0 -112 -13v-664zM137 609q17 5 43 5q60 0 87 -36.5t27 -94.5q0 -70 -34.5 -107.5t-92.5 -37.5q-16 0 -30 3v268z" />
    <glyph glyph-name="Q" unicode="Q" horiz-adv-x="446" 
d="M429 -29l-30 11q-66 23 -100 37v4q55 26 85 105.5t30 213.5q0 161 -48.5 250.5t-134.5 89.5q-91 0 -145 -89.5t-54 -254.5q0 -171 51.5 -258.5t137.5 -87.5q5 0 25 -10q27 -15 72.5 -36.5t82.5 -36.5zM225 60q-31 0 -53 23t-35.5 62.5t-19 88t-5.5 104.5q0 54 6 102.5
t19 88t35 62.5t53 23t52.5 -23.5t34 -63.5t17.5 -87.5t5 -100.5q0 -55 -5 -103.5t-17.5 -88.5t-33.5 -63.5t-52 -23.5h-1z" />
    <glyph glyph-name="R" unicode="R" horiz-adv-x="409" 
d="M60 0h77v294h30q49 0 74 -28.5t36 -98.5q10 -64 19.5 -108t16.5 -59h78q-17 39 -38 171q-11 67 -32.5 103.5t-58.5 47.5v2q52 24 80 67t28 106q0 84 -47 132q-49 48 -152 48q-63 0 -111 -13v-664zM137 611q13 4 40 4q60 -1 87.5 -33.5t27.5 -93.5t-34 -98t-89 -37h-32
v258z" />
    <glyph glyph-name="S" unicode="S" horiz-adv-x="361" 
d="M28 23q15 -11 48 -20t66 -9q82 0 135.5 52t53.5 137q0 57 -28 104.5t-89 89.5q-56 41 -77.5 67t-21.5 72q0 38 25.5 67t71.5 29q24 0 45 -6.5t35 -16.5l19 66q-13 10 -39 17.5t-56 7.5q-79 0 -128.5 -50t-49.5 -127q0 -58 37 -104t90 -83q45 -34 67 -65.5t22 -74.5
q0 -51 -30 -82.5t-82 -31.5q-25 0 -52.5 8t-44.5 19z" />
    <glyph glyph-name="T" unicode="T" horiz-adv-x="354" 
d="M139 0h77v605h123v69h-323v-69h123v-605z" />
    <glyph glyph-name="U" unicode="U" horiz-adv-x="457" 
d="M59 674v-449q0 -120 44 -176.5t123 -56.5q80 0 126 58.5t46 183.5v440h-77v-452q0 -85 -24 -123.5t-69 -38.5q-42 0 -67 38t-25 124v452h-77z" />
    <glyph glyph-name="V" unicode="V" horiz-adv-x="421" 
d="M249 0l157 674h-82l-64 -314q0 -2 -1 -6q-18 -91 -27.5 -144t-16.5 -111h-3q-8 57 -20 120.5t-28 138.5l-66 316h-82l154 -674h79z" />
    <glyph glyph-name="W" unicode="W" horiz-adv-x="654" 
d="M222 0l67 325q20 92 37 224h2q9 -86 34 -221l65 -328h75l131 674h-75l-56 -321q-13 -74 -20.5 -127t-15.5 -120h-3q-6 59 -14.5 113t-21.5 124l-3 14l-62 317h-66l-62 -324q-4 -21 -9 -49q-13 -66 -20 -107.5t-11 -87.5h-4q-6 60 -13.5 115.5t-19.5 127.5l-57 325h-80
l130 -674h72z" />
    <glyph glyph-name="X" unicode="X" horiz-adv-x="392" 
d="M378 0l-139 346l132 328h-79l-55 -153q-12 -37 -21.5 -65t-14.5 -45h-2q-3 9 -10 28q-20 54 -30 79l-60 156h-80l134 -330l-139 -344h79l58 160q13 36 41 120h3q11 -34 21 -62.5t20 -55.5l61 -162h81z" />
    <glyph glyph-name="Y" unicode="Y" horiz-adv-x="394" 
d="M235 0v288l155 386h-81l-57 -166q-33 -94 -49 -155h-2q-20 68 -50 152l-60 169h-81l148 -389v-285h77z" />
    <glyph glyph-name="Z" unicode="Z" horiz-adv-x="358" 
d="M20 0h316v66h-226v3l227 553v52h-298v-66h212v-3l-231 -559v-46z" />
    <glyph glyph-name="bracketleft" unicode="[" horiz-adv-x="253" 
d="M223 -112v53h-87v692h87v53h-149v-798h149z" />
    <glyph glyph-name="backslash" unicode="\" horiz-adv-x="281" 
d="M273 -40l-214 722h-58l214 -722h58z" />
    <glyph glyph-name="bracketright" unicode="]" horiz-adv-x="253" 
d="M31 686v-53h86v-692h-86v-53h148v798h-148z" />
    <glyph glyph-name="asciicircum" unicode="^" horiz-adv-x="596" 
d="M532 189l-206 461h-56l-206 -461h64l168 388h3l168 -388h65z" />
    <glyph glyph-name="underscore" unicode="_" horiz-adv-x="500" 
d="M0 -75v-50h500v50h-500z" />
    <glyph glyph-name="grave" unicode="`" horiz-adv-x="300" 
d="M40 675l105 -135h50l-77 135h-78z" />
    <glyph glyph-name="a" unicode="a" horiz-adv-x="364" 
d="M310 319q0 84 -34 128.5t-105 44.5q-33 0 -64.5 -9.5t-48.5 -22.5l17 -54q38 25 80 25q43 0 60 -28.5t17 -81.5v-15q-42 0 -79 -11t-65 -32q-62 -47 -62 -133q0 -61 33 -99.5t82 -38.5q30 0 55 15.5t41 43.5h3l5 -51h70q-3 21 -4 46.5t-1 63.5v209zM234 152q0 -18 -2 -27
q-6 -35 -26 -54t-46 -19q-23 0 -41 21.5t-18 64.5q0 37 14 60t35 34t42 14.5t42 3.5v-98z" />
    <glyph glyph-name="b" unicode="b" horiz-adv-x="399" 
d="M53 116q0 -16 -1 -47.5t-2 -39.5q0 -14 -1 -29h66l5 63h3q16 -34 38 -52.5t58 -18.5q61 0 104 65.5t43 189.5q0 115 -37 180t-95 65q-33 0 -58.5 -15.5t-43.5 -49.5h-2v265h-77v-576zM130 306q0 23 2 34q5 33 25.5 59.5t46.5 26.5q44 0 64.5 -51.5t20.5 -131.5
q0 -84 -20 -135.5t-64 -51.5q-21 0 -40.5 18.5t-31.5 66.5q-3 8 -3 30v135z" />
    <glyph glyph-name="c" unicode="c" horiz-adv-x="302" 
d="M280 71q-29 -13 -56 -13q-53 0 -83.5 48t-30.5 133q0 78 29 132.5t83 54.5q17 0 31 -4t24 -9l15 63q-11 6 -30 10.5t-38 4.5q-44 0 -80 -19.5t-60.5 -54t-37.5 -80.5t-13 -98q0 -117 48 -181t129 -64q24 0 45 5t35 13z" />
    <glyph glyph-name="d" unicode="d" horiz-adv-x="399" 
d="M269 692v-258h-2q-14 29 -37 43.5t-51 14.5q-61 0 -103.5 -65t-42.5 -187q0 -117 39 -182.5t102 -65.5q36 0 62 20t39 49h3l5 -61h66q-1 15 -1 29q0 8 -1.5 39.5t-1.5 47.5v576h-76zM269 171q0 -18 -3 -32q-11 -47 -31 -65t-43 -18q-40 0 -61 51.5t-21 132.5t20.5 133.5
t65.5 52.5q27 0 47.5 -27.5t24.5 -66.5q1 -11 1 -32v-129z" />
    <glyph glyph-name="e" unicode="e" horiz-adv-x="363" 
d="M333 235q1 12 1 43q0 43 -8 81.5t-24.5 68t-43 47t-62.5 17.5q-73 0 -118 -69t-45 -186q0 -113 45.5 -178t130.5 -65q29 0 57.5 6t48.5 17l-12 57q-33 -19 -80 -19q-23 0 -43 8t-36 27.5t-26 55t-10 89.5h225zM109 292q3 55 23.5 97.5t55.5 42.5q30 0 51 -35t21 -105
h-151z" />
    <glyph glyph-name="f" unicode="f" horiz-adv-x="228" 
d="M147 0v425h88v59h-88v30q0 55 15 88.5t53 33.5q24 0 42 -8l13 60q-24 12 -60 12q-26 0 -52 -10t-45 -31q-24 -28 -33.5 -64.5t-9.5 -81.5v-29h-61v-59h61v-425h77z" />
    <glyph glyph-name="g" unicode="g" horiz-adv-x="399" 
d="M346 333q0 57 3 121q1 17 1 30h-69l-4 -55h-2q-13 27 -34 45t-56 18q-28 0 -54.5 -15t-49 -46t-35.5 -79t-13 -112q0 -107 39 -173t103 -66q31 0 55.5 15.5t37.5 43.5h2v-49q0 -79 -25.5 -113.5t-73.5 -34.5q-26 0 -49.5 6t-40.5 15l-18 -60q19 -11 48 -17.5t58 -6.5
q40 0 73.5 13.5t55.5 38.5q25 28 36.5 73.5t11.5 136.5v271zM270 177q0 -25 -5 -44q-11 -39 -29.5 -54t-39.5 -15q-38 0 -62 46t-24 134q0 82 22.5 132t63.5 50q30 0 45.5 -21t24.5 -53q4 -13 4 -35v-140z" />
    <glyph glyph-name="h" unicode="h" horiz-adv-x="405" 
d="M54 0h77v313q0 21 3 37q18 77 75 77q36 0 50.5 -32t14.5 -83v-312h77v321q0 86 -31.5 128.5t-81.5 42.5q-35 0 -65 -18q-25 -17 -40 -42h-2v260h-77v-692z" />
    <glyph glyph-name="i" unicode="i" horiz-adv-x="184" 
d="M131 0v484h-77v-484h77zM91 567q22 0 36 15t14 39t-14 39t-36 15q-20 0 -34 -15t-14 -39t13.5 -39t33.5 -15h1z" />
    <glyph glyph-name="j" unicode="j" horiz-adv-x="188" 
d="M-18 -200q25 1 55.5 13t50.5 33q26 28 37.5 69.5t11.5 115.5v453h-77v-431q0 -68 -5 -101t-18 -53q-11 -16 -26.5 -24t-38.5 -14zM98 567q22 0 35.5 14.5t13.5 39.5q0 24 -13 39t-35 15q-21 0 -35.5 -15t-14.5 -39t14 -39t34 -15h1z" />
    <glyph glyph-name="k" unicode="k" horiz-adv-x="354" 
d="M130 692h-77v-692h77v183l27 45l105 -228h86l-139 280l128 204h-83l-96 -171q-7 -12 -18 -37q-4 -9 -8 -17h-2v433z" />
    <glyph glyph-name="l" unicode="l" horiz-adv-x="184" 
d="M54 0h77v692h-77v-692z" />
    <glyph glyph-name="m" unicode="m" horiz-adv-x="620" 
d="M54 0h76v307q0 23 3 42q7 37 27.5 57.5t44.5 20.5q39 0 53 -30.5t14 -79.5v-317h76v311q0 25 3 44q8 34 27.5 53t43.5 19q21 0 35 -10t21 -28q12 -29 12 -86v-303h76v321q0 88 -32 129.5t-84 41.5q-39 0 -67 -19t-48 -55h-2q-13 38 -39.5 56t-61.5 18q-37 0 -64.5 -18.5
t-44.5 -49.5h-2l-4 60h-67q1 -21 2 -40q2 -51 2 -85v-359z" />
    <glyph glyph-name="n" unicode="n" horiz-adv-x="405" 
d="M54 0h77v305q0 25 3 43q7 38 27.5 58.5t45.5 20.5q38 0 52.5 -32t14.5 -83v-312h77v325q0 84 -32 125.5t-85 41.5q-37 0 -66 -18t-45 -48h-2l-4 58h-67q1 -21 2 -40q2 -51 2 -85v-359z" />
    <glyph glyph-name="o" unicode="o" horiz-adv-x="383" 
d="M191 -8q29 0 57 13.5t51.5 43t37.5 78t14 115.5q0 121 -44 185.5t-112 64.5q-32 0 -61 -14.5t-52 -45.5t-36 -79t-13 -112q0 -122 44 -185.5t113 -63.5h1zM192 53q-25 0 -41.5 17.5t-25.5 45t-12.5 60t-3.5 66.5q0 32 3.5 64t12.5 60t25.5 46t40.5 18t40 -17.5t25 -46
t12.5 -60.5t3.5 -64q0 -33 -3.5 -65t-12 -60t-24.5 -46t-39 -18h-1z" />
    <glyph glyph-name="p" unicode="p" horiz-adv-x="399" 
d="M53 -192h77v240h2q12 -24 32.5 -40t51.5 -16q30 0 56.5 14.5t48 45t33.5 79t12 112.5q0 118 -38 183.5t-102 65.5q-31 0 -57.5 -16.5t-44.5 -53.5h-2l-4 62h-69q0 -13 1 -30q3 -64 3 -121v-525zM130 301q0 25 2 37q4 34 25 61t46 27q43 0 64 -51.5t21 -132.5
q0 -39 -4.5 -72t-14 -59t-26 -40.5t-39.5 -14.5q-21 0 -41 18t-30 64q-3 11 -3 40v123z" />
    <glyph glyph-name="q" unicode="q" horiz-adv-x="399" 
d="M269 -192h77v525q0 54 1 87t3 64h-69l-4 -57l-2 1q-16 35 -39.5 49.5t-50.5 14.5q-64 0 -108 -67t-44 -189q0 -115 39.5 -179.5t100.5 -64.5q32 0 56 16t37 42h3v-242zM269 178q0 -29 -4 -41q-11 -45 -29.5 -63t-40.5 -18q-42 0 -63.5 51.5t-21.5 132.5q0 83 21 134.5
t66 51.5q25 0 45.5 -26.5t24.5 -64.5q2 -9 2 -32v-125z" />
    <glyph glyph-name="r" unicode="r" horiz-adv-x="248" 
d="M53 0h77v268q0 25 3 44q6 43 31.5 72t61.5 29q11 0 16 -1v79q-1 0 -7 1h-9q-33 0 -61.5 -24t-40.5 -60h-2l-4 76h-69q0 -10 2 -42q2 -54 2 -83v-359z" />
    <glyph glyph-name="s" unicode="s" horiz-adv-x="289" 
d="M22 22q16 -13 42.5 -20.5t53.5 -7.5q63 0 104 37t41 107q0 47 -26.5 82t-73.5 65q-36 25 -48 42t-12 42t16.5 43t46.5 18q33 0 64 -21l21 58q-18 11 -39.5 18t-47.5 7q-57 0 -95 -38t-38 -96q0 -41 24 -73.5t73 -64.5q36 -24 49 -45t13 -50q0 -32 -19 -51t-52 -19
q-21 0 -42 7.5t-36 17.5z" />
    <glyph glyph-name="t" unicode="t" horiz-adv-x="255" 
d="M71 566v-82h-59v-59h59v-280q0 -49 7 -77t22 -45q26 -29 76 -29q35 0 57 8l-3 59q-13 -3 -31 -3q-23 0 -37 18t-14 62v287h93v59h-93v113z" />
    <glyph glyph-name="u" unicode="u" horiz-adv-x="398" 
d="M344 484h-77v-319q0 -27 -4 -44q-4 -22 -21.5 -43t-47.5 -21q-37 0 -51 34t-14 98v295h-77v-306q0 -93 28 -139.5t90 -46.5q35 0 62.5 18.5t41.5 40.5h2l5 -51h67q0 10 -1 38q-3 57 -3 94v352z" />
    <glyph glyph-name="v" unicode="v" horiz-adv-x="347" 
d="M13 484l126 -484h69l126 484h-76l-60 -272l-2 -9q-13 -70 -18 -109h-3q-4 30 -9.5 60t-11.5 58l-61 272h-80z" />
    <glyph glyph-name="w" unicode="w" horiz-adv-x="566" 
d="M13 484l118 -484h65l58 232q9 36 15.5 72t12.5 76h2q7 -45 12.5 -78t14.5 -67l56 -235h63l122 484h-77l-46 -235q-19 -93 -26 -156h-4q-9 59 -31 159l-53 232h-59l-56 -239q-9 -37 -17 -76.5t-13 -75.5h-4q-4 36 -17 107q-6 30 -9 47l-47 237h-80z" />
    <glyph glyph-name="x" unicode="x" horiz-adv-x="340" 
d="M14 484l112 -241l-115 -243h78l45 109q7 18 8 20q16 41 24 64h2l2 -5q20 -55 30 -79l46 -109h84l-114 246l115 238h-79l-44 -103q-18 -46 -32 -85h-2q-3 8 -11 30q-13 37 -21 55l-45 103h-83z" />
    <glyph glyph-name="y" unicode="y" horiz-adv-x="346" 
d="M13 484l122 -447q2 -6 2 -18q0 -9 -5 -24q-7 -20 -18.5 -42t-25.5 -39q-33 -42 -68 -61l28 -66q17 8 40.5 26.5t46.5 47.5q39 50 66 125.5t54 186.5l79 311h-76l-57 -279q-7 -29 -12.5 -55.5t-8.5 -43.5h-2q-1 7 -6 30q-8 44 -14 70l-64 278h-81z" />
    <glyph glyph-name="z" unicode="z" horiz-adv-x="313" 
d="M16 0h277v64h-190v2q6 11 20 38q12 21 19 34l151 295v51h-258v-64h173v-2q-6 -11 -20 -38q-12 -21 -19 -34l-153 -299v-47z" />
    <glyph glyph-name="braceleft" unicode="{" horiz-adv-x="253" 
d="M29 262q37 0 52.5 -21t15.5 -50q0 -28 -6 -86t-6 -89q0 -67 35 -97.5t90 -30.5h13v52h-14q-33 4 -46.5 22.5t-13.5 53.5q0 27 6 77q1 14 2 19q3 37 3 56q0 57 -17 83t-52 36v2q34 10 51.5 36t17.5 82q0 19 -3 55q-1 12 -2 19q-6 50 -6 78q0 68 59 75h15v52h-12
q-57 0 -91.5 -32t-34.5 -96q0 -31 6 -89q6 -56 6 -86t-15.5 -50.5t-52.5 -20.5v-50z" />
    <glyph glyph-name="bar" unicode="|" horiz-adv-x="201" 
d="M69 750v-1000h63v1000h-63z" />
    <glyph glyph-name="braceright" unicode="}" horiz-adv-x="253" 
d="M224 312q-37 0 -52.5 20.5t-15.5 50.5t6 86q6 58 6 89q0 64 -34.5 96t-91.5 32h-12v-52h15q59 -7 59 -75q0 -20 -3 -61q-1 -11 -2 -17v-3q-6 -47 -6 -71q0 -56 17.5 -82t51.5 -36v-2q-34 -10 -51.5 -36t-17.5 -83q0 -25 6 -75l2 -18q3 -38 3 -59q0 -35 -13.5 -53.5
t-46.5 -22.5h-14v-52h13q55 0 90 30.5t35 97.5q0 31 -6 89t-6 86q0 29 15.5 50t52.5 21v50z" />
    <glyph glyph-name="asciitilde" unicode="~" horiz-adv-x="596" 
d="M127 221q0 40 13 59t37 19q21 0 47 -10.5t68 -32.5q43 -23 72 -31.5t57 -8.5q49 0 76 33t27 102h-54q0 -37 -11.5 -57.5t-35.5 -20.5q-19 0 -45 9.5t-66 30.5q-81 42 -129 42q-50 0 -80 -34.5t-30 -99.5h54z" />
    <glyph glyph-name="quotesinglbase" unicode="&#x201a;" horiz-adv-x="177" 
d="M66 -113q10 17 22.5 44.5t24.5 57.5t23.5 64t19.5 64l-78 -10q-7 -49 -24 -115t-34 -112z" />
    <glyph glyph-name="florin" unicode="&#x192;" 
d="M77 346h76l-25 -213q-10 -83 -29 -117t-52 -34q-10 0 -23 3t-22 8l-15 -56q22 -15 64 -17q71 0 103 49.5t44 146.5l29 230h96v60h-91l9 63q7 58 26 92.5t56 34.5q23 0 43 -7l12 57q-22 12 -55 12q-39 0 -67.5 -16t-46.5 -44t-28 -62.5t-15 -75.5l-8 -54h-81v-60z" />
    <glyph glyph-name="quotedblbase" unicode="&#x201e;" horiz-adv-x="307" 
d="M64 -113q10 17 22.5 44.5t25 58.5t24 64.5t19.5 62.5l-79 -10q-7 -48 -24 -114t-33 -113zM197 -113q10 17 22.5 44.5t24.5 57.5t23.5 64t19.5 64l-78 -10q-7 -49 -24 -115t-34 -112z" />
    <glyph glyph-name="ellipsis" unicode="&#x2026;" horiz-adv-x="1000" 
d="M115 50q0 -26 14.5 -42t36.5 -16q24 0 37.5 16t13.5 42t-14 42t-37 16q-21 0 -36 -16.5t-15 -41.5zM448 50q0 -26 14.5 -42t36.5 -16q24 0 37.5 16t13.5 42t-14 42t-37 16q-21 0 -36 -16.5t-15 -41.5zM781 50q0 -26 14.5 -42t36.5 -16q24 0 37.5 16t13.5 42t-14 42
t-37 16q-21 0 -36 -16.5t-15 -41.5z" />
    <glyph glyph-name="dagger" unicode="&#x2020;" horiz-adv-x="380" 
d="M155 674l6 -198l-130 6v-68l130 7l-6 -471h70l-6 471l131 -7v68l-131 -6l6 198h-70z" />
    <glyph glyph-name="daggerdbl" unicode="&#x2021;" horiz-adv-x="380" 
d="M155 674l5 -195l-129 6v-68l129 7v-215l-129 6v-68l129 6l-5 -203h70l-4 203l129 -6v68l-129 -6v215l129 -7v68l-129 -6l4 195h-70z" />
    <glyph glyph-name="circumflex" unicode="&#x2c6;" horiz-adv-x="300" 
d="M128 675l-78 -135h53l45 85h2l46 -85h54l-79 135h-43z" />
    <glyph glyph-name="perthousand" unicode="&#x2030;" horiz-adv-x="934" 
d="M153 658q-53 0 -88 -53.5t-35 -144.5q0 -89 34.5 -142.5t88.5 -53.5q51 0 86.5 50.5t35.5 147.5q0 89 -33 142.5t-88 53.5h-1zM154 610q19 0 31.5 -13.5t19.5 -35.5t9.5 -48.5t2.5 -52.5q0 -27 -3 -52.5t-10 -47.5t-19.5 -35t-30.5 -13t-30.5 13t-20 35t-10.5 47.5
t-3 53.5q0 27 3 53t10.5 47.5t20 35t29.5 13.5h1zM493 387q-53 0 -88 -53.5t-35 -144.5q0 -90 34 -143t89 -53q51 0 86.5 50.5t35.5 146.5q0 89 -33 143t-88 54h-1zM494 339q18 0 30.5 -13.5t19.5 -35.5t10 -48t3 -53t-3 -53t-10 -48t-19.5 -35t-30.5 -13t-30.5 13t-20 35
t-10.5 48t-3 54q0 27 3 53t10 47.5t19.5 35t30.5 13.5h1zM782 387q-53 0 -87.5 -53.5t-34.5 -144.5q0 -90 34 -143t88 -53q51 0 86.5 50.5t35.5 146.5q0 89 -33 143t-88 54h-1zM783 339q19 0 31.5 -13.5t19.5 -35.5t9.5 -48.5t2.5 -52.5q0 -27 -3 -53t-10 -48t-19.5 -35
t-30.5 -13t-30.5 13t-20 35t-10.5 48t-3 54q0 27 3 53t10.5 47.5t20 35t29.5 13.5h1zM173 -14l345 677h-48l-346 -677h49z" />
    <glyph glyph-name="Scaron" unicode="&#x160;" horiz-adv-x="361" 
d="M28 23q15 -11 48 -20t66 -9q82 0 135.5 52t53.5 137q0 57 -28 104.5t-89 89.5q-56 41 -77.5 67t-21.5 72q0 38 25.5 67t71.5 29q24 0 45 -6.5t35 -16.5l19 66q-13 10 -39 17.5t-56 7.5q-79 0 -128.5 -50t-49.5 -127q0 -58 37 -104t90 -83q45 -34 67 -65.5t22 -74.5
q0 -51 -30 -82.5t-82 -31.5q-25 0 -52.5 8t-44.5 19zM220 710l81 113h-60l-49 -75h-2l-51 75h-58l81 -113h58z" />
    <glyph glyph-name="guilsinglleft" unicode="&#x2039;" horiz-adv-x="210" 
d="M190 426h-62l-103 -174l102 -174h63l-104 174z" />
    <glyph glyph-name="OE" unicode="&#x152;" horiz-adv-x="610" 
d="M585 67h-192v253h169v65h-169v222h180v67h-227q-9 1 -30 4l-6 1q-16 3 -38 3q-106 0 -173 -89.5t-67 -259.5q0 -70 12 -131t39 -108.5t72 -74.5t109 -27q18 0 37 3q23 4 38 5h246v67zM316 68q-8 -4 -21.5 -6t-27.5 -2q-31 0 -58.5 14t-49.5 46.5t-34.5 86.5t-12.5 131
q0 74 13.5 127.5t35.5 86.5t48 47.5t53 14.5q35 0 54 -11v-535z" />
    <glyph glyph-name="quoteleft" unicode="&#x2018;" horiz-adv-x="177" 
d="M100 457q7 49 24.5 115t33.5 111l-46 -6q-10 -17 -22.5 -44t-24.5 -58t-23.5 -65t-19.5 -63z" />
    <glyph glyph-name="quoteright" unicode="&#x2019;" horiz-adv-x="177" 
d="M78 673q-7 -49 -24.5 -115t-33.5 -111l46 6q10 17 22.5 44.5t24.5 58t23.5 64.5t19.5 63z" />
    <glyph glyph-name="quotedblleft" unicode="&#x201c;" horiz-adv-x="307" 
d="M98 457q7 49 24.5 115t33.5 111l-45 -6q-10 -16 -22.5 -43.5t-24.5 -58t-24 -64.5t-20 -64zM231 457q7 49 24.5 115t33.5 111l-46 -6q-9 -16 -21.5 -43.5t-25.5 -60t-24 -65.5t-19 -61z" />
    <glyph glyph-name="quotedblright" unicode="&#x201d;" horiz-adv-x="307" 
d="M76 673q-4 -26 -10.5 -56t-14.5 -61q-16 -64 -32 -109l45 6q10 17 22.5 44t25 59t24 65t19.5 62zM209 673q-7 -49 -24.5 -115t-33.5 -111l46 6q10 17 22.5 44.5t24.5 58t23.5 64.5t19.5 63z" />
    <glyph glyph-name="bullet" unicode="&#x2022;" horiz-adv-x="257" 
d="M128 246q41 0 68.5 27.5t27.5 68.5q0 42 -27.5 69.5t-67.5 27.5t-68 -27.5t-28 -69.5q0 -41 27.5 -68.5t66.5 -27.5h1z" />
    <glyph glyph-name="endash" unicode="&#x2013;" horiz-adv-x="500" 
d="M30 288v-56h440v56h-440z" />
    <glyph glyph-name="emdash" unicode="&#x2014;" horiz-adv-x="1000" 
d="M30 288v-56h940v56h-940z" />
    <glyph glyph-name="tilde" unicode="&#x2dc;" horiz-adv-x="300" 
d="M83 555q3 41 24 41q13 0 39 -17q13 -8 24.5 -13t24.5 -5q31 0 46 22.5t15 61.5h-38q-1 -21 -7.5 -29t-18.5 -8q-10 0 -31 13q-5 3 -8 4l-5 3q-13 8 -22.5 11.5t-21.5 3.5q-29 0 -45 -25t-16 -63h40z" />
    <glyph glyph-name="trademark" unicode="&#x2122;" horiz-adv-x="661" 
d="M17 674v-45h87v-353h52v353h86v45h-225zM627 276l-30 398h-64l-69 -237q-5 -19 -10 -38.5t-9 -37.5h-2q-5 21 -9.5 39t-9.5 36l-68 238h-67l-29 -398h51l13 261q0 12 1 33q0 30 1 47h3q3 -11 7 -32q6 -32 12 -50l75 -256h34l77 248q8 24 18 68q2 11 5 22h3v-30
q-1 -19 -1 -29q0 -6 1 -11v-13l15 -258h52z" />
    <glyph glyph-name="scaron" unicode="&#x161;" horiz-adv-x="289" 
d="M173 540l79 135h-56l-48 -88h-2l-47 88h-56l78 -135h52zM22 22q16 -13 42.5 -20.5t53.5 -7.5q63 0 104 37t41 107q0 47 -26.5 82t-73.5 65q-36 25 -48 42t-12 42t16.5 43t46.5 18q33 0 64 -21l21 58q-18 11 -39.5 18t-47.5 7q-57 0 -95 -38t-38 -96q0 -41 24 -73.5
t73 -64.5q36 -24 49 -45t13 -50q0 -32 -19 -51t-52 -19q-21 0 -42 7.5t-36 17.5z" />
    <glyph glyph-name="guilsinglright" unicode="&#x203a;" horiz-adv-x="210" 
d="M124 252l-104 -174h64l102 174l-104 174h-62z" />
    <glyph glyph-name="oe" unicode="&#x153;" horiz-adv-x="609" 
d="M580 237v15q1 15 1 26q0 41 -8 79.5t-24.5 69t-42 48t-59.5 17.5q-42 0 -75 -26t-51 -73h-2q-14 49 -47.5 74t-75.5 25q-68 0 -115.5 -64.5t-47.5 -186.5q0 -121 44 -185t114 -64q42 0 76 25.5t49 76.5h2q16 -50 53 -76t81 -26q32 0 61 6t52 20l-14 55q-25 -10 -43 -15
t-41 -5q-25 0 -44.5 8.5t-34.5 29.5t-23.5 57t-9.5 89h225zM197 430q26 0 43 -17t26.5 -44.5t13 -59.5t3.5 -66q0 -35 -3.5 -67.5t-12.5 -60t-26 -45t-43 -17.5t-43.5 17.5t-27 45t-13.5 59.5t-4 67q0 32 3.5 63.5t12.5 60t26.5 46.5t43.5 18h1zM355 292q3 57 24.5 98
t57.5 41q28 0 48.5 -35.5t20.5 -103.5h-151z" />
    <glyph glyph-name="Ydieresis" unicode="&#x178;" horiz-adv-x="394" 
d="M235 0v288l155 386h-81l-57 -166q-33 -94 -49 -155h-2q-20 68 -50 152l-60 169h-81l148 -389v-285h77zM122 725q20 0 31 12.5t11 32.5t-11.5 32.5t-30.5 12.5q-17 0 -29.5 -13t-12.5 -32q0 -20 12 -32.5t29 -12.5h1zM278 725q19 0 30 12.5t11 32.5t-11 32.5t-30 12.5
q-18 0 -30 -13t-12 -32q0 -20 12 -32.5t29 -12.5h1z" />
    <glyph glyph-name="exclamdown" unicode="&#xa1;" horiz-adv-x="204" 
d="M145 -189l-11 486h-65l-10 -486h86zM102 496q-21 0 -35 -15t-14 -40q0 -24 14 -39t35 -15q23 0 36 15t13 39q0 25 -13 40t-35 15h-1z" />
    <glyph glyph-name="cent" unicode="&#xa2;" 
d="M253 -6v95q44 3 72 20l-10 58q-17 -9 -33.5 -13t-38.5 -4q-49 0 -76.5 46t-27.5 126q0 32 5 63.5t17 58t31 42t46 15.5q36 0 69 -18l14 61q-25 16 -67 18v89h-55v-94q-63 -14 -100 -77t-37 -152q0 -65 13.5 -111.5t36.5 -74.5q36 -41 86 -51v-97h55z" />
    <glyph glyph-name="sterling" unicode="&#xa3;" 
d="M353 0v66h-226v2q25 24 40.5 53t22.5 58q7 31 7 71q0 25 -3 55h97v55h-105v1q-7 37 -10 63.5t-3 62.5q0 44 20 75t60 31q36 0 61 -17l17 62q-30 20 -78 20q-66 0 -110.5 -49.5t-44.5 -132.5q0 -29 4.5 -60.5t9.5 -55.5h-74v-55h82q6 -37 6 -82q0 -27 -8.5 -55t-22.5 -53
t-31 -42t-33 -24v-49h322z" />
    <glyph glyph-name="currency" unicode="&#xa4;" 
d="M193 529q-25 0 -51 -11t-43 -31l-62 74l-41 -42l74 -72q-27 -52 -27 -120t25 -118l-71 -72l40 -40l61 72q16 -19 42 -30t51 -11t51 11.5t44 30.5l63 -73l39 40l-72 75q12 24 18 54t6 63q0 32 -6 62.5t-18 55.5l73 73l-40 40l-61 -72q-17 19 -43 30t-51 11h-1zM194 470
q37 0 58 -39.5t21 -102.5q0 -64 -21 -102.5t-59 -38.5q-36 0 -58.5 39t-22.5 101q0 67 21.5 105t59.5 38h1z" />
    <glyph glyph-name="yen" unicode="&#xa5;" 
d="M224 0v187h128v46h-128v74h128v46h-109l128 297h-73l-70 -190q-17 -46 -33 -103h-2q-7 23 -27 82l-7 20l-67 191h-77l119 -297h-106v-46h125v-74h-125v-46h125v-187h71z" />
    <glyph glyph-name="brokenbar" unicode="&#xa6;" horiz-adv-x="201" 
d="M69 175v-350h63v350h-63zM69 675v-350h63v350h-63z" />
    <glyph glyph-name="section" unicode="&#xa7;" horiz-adv-x="401" 
d="M92 354q0 49 45 79q19 -13 40 -23.5t53 -25.5l11 -5q32 -16 50.5 -38.5t18.5 -51.5q0 -24 -10.5 -45.5t-29.5 -33.5q-17 14 -40 26.5t-58 29.5q-80 37 -80 87v1zM327 655q-39 26 -101 26q-67 0 -114 -37t-47 -101q1 -26 10.5 -47t24.5 -34q-36 -28 -52.5 -57.5
t-16.5 -60.5q0 -55 35 -88.5t106 -66.5q59 -28 82 -50.5t23 -56.5q0 -39 -27 -59t-67 -20q-34 0 -62 10.5t-47 23.5l-19 -54q20 -15 54 -24.5t72 -9.5q69 0 115.5 37.5t46.5 107.5q0 28 -10 50.5t-23 34.5q30 26 44.5 54.5t14.5 66.5q0 32 -10.5 57t-29.5 43t-42.5 31
t-55.5 27l-3 1q-50 22 -73 40.5t-23 54.5q0 37 27 55t63 18q52 0 87 -24z" />
    <glyph glyph-name="dieresis" unicode="&#xa8;" horiz-adv-x="300" 
d="M74 556q18 0 30 13t12 31q0 19 -12.5 32t-29.5 13q-19 0 -31.5 -13t-12.5 -32q0 -18 12.5 -31t30.5 -13h1zM227 556q18 0 30 13t12 31q0 19 -12 32t-30 13t-31 -13t-13 -32q0 -18 13 -31t30 -13h1z" />
    <glyph glyph-name="copyright" unicode="&#xa9;" horiz-adv-x="677" 
d="M340 648q-63 0 -119.5 -24t-98.5 -66.5t-65.5 -98.5t-23.5 -119q0 -64 23.5 -120.5t65.5 -99t98.5 -66.5t119.5 -24t118.5 24t97.5 66.5t65 99.5t23 120t-23 119t-64.5 98.5t-97 66.5t-118.5 24h-1zM341 607q53 0 99.5 -20.5t81.5 -57t54 -85.5t19 -104q0 -56 -19 -105.5
t-54 -86t-81.5 -57t-99.5 -20.5q-54 0 -101 20.5t-82 57t-54.5 85t-19.5 103.5q0 56 19.5 105.5t54.5 86.5t82 57.5t100 20.5h1zM474 495q-12 9 -43 17t-66 8q-38 0 -73 -13t-62 -37.5t-42 -59t-15 -76.5q0 -77 49.5 -129t132.5 -52q33 0 65 7t57 22l-12 38q-18 -10 -45 -17
t-56 -7q-64 0 -101.5 40.5t-37.5 100.5q0 63 36 101.5t103 38.5q30 0 53.5 -6.5t42.5 -14.5q1 -1 2 -1z" />
    <glyph glyph-name="ordfeminine" unicode="&#xaa;" horiz-adv-x="273" 
d="M243 263q-4 29 -4 74v131q0 57 -26 88.5t-78 31.5q-50 0 -87 -27l13 -41q29 21 64 21q30 0 45 -17t15 -46v-11q-68 0 -113 -29.5t-45 -87.5q0 -41 25 -66.5t60 -25.5q51 0 76 40h2l5 -35h48zM186 356q0 -10 -8 -22q-18 -30 -49 -30q-18 0 -32.5 14t-14.5 39q0 22 11.5 36
t28 21t33 9t31.5 2v-69z" />
    <glyph glyph-name="guillemotleft" unicode="&#xab;" horiz-adv-x="354" 
d="M190 426h-62l-103 -174l102 -174h63l-104 174zM333 426h-62l-104 -174l103 -174h63l-104 174z" />
    <glyph glyph-name="logicalnot" unicode="&#xac;" horiz-adv-x="596" 
d="M40 398v-55h460v-223h56v278h-516z" />
    <glyph glyph-name="minus" unicode="&#xad;" horiz-adv-x="596" 
d="M40 294v-54h516v54h-516z" />
    <glyph glyph-name="minus" unicode="&#x2212;" horiz-adv-x="596" 
d="M40 294v-54h516v54h-516z" />
    <glyph glyph-name="registered" unicode="&#xae;" horiz-adv-x="510" 
d="M256 682q-46 0 -87.5 -17.5t-72.5 -48t-48.5 -71.5t-17.5 -87t17.5 -87.5t48.5 -72.5t72.5 -48.5t87.5 -17.5t87 17.5t72 48.5t48 72.5t17 87.5t-17 86.5t-48 72t-71.5 48.5t-86.5 17h-1zM257 647q37 0 70 -14.5t58 -41t39 -61t14 -73.5t-14 -73.5t-39 -61t-58 -41.5
t-70 -15t-71 14.5t-59 41t-39 61.5t-14 74t14 73.5t39 61t58.5 41t70.5 14.5h1zM214 435h27q47 0 54 -44q10 -53 18 -64h42q-4 7 -8 21t-8 41q-9 55 -42 61v2q21 6 34.5 21.5t13.5 38.5q0 35 -22 52q-25 20 -78 20q-24 0 -59 -5q-5 -1 -13 -2v-250h41v108zM214 551
q14 2 29 2q31 0 46 -12.5t15 -31.5q0 -22 -17.5 -32.5t-44.5 -10.5h-28v85z" />
    <glyph glyph-name="macron" unicode="&#xaf;" horiz-adv-x="300" 
d="M52 623v-48h197v48h-197z" />
    <glyph glyph-name="degree" unicode="&#xb0;" horiz-adv-x="280" 
d="M151 685q-50 0 -86.5 -38t-36.5 -92t35 -90.5t87 -36.5q49 0 86 36.5t37 92.5q0 53 -35 90.5t-86 37.5h-1zM152 644q33 0 54 -26t21 -62q0 -37 -21.5 -62.5t-53.5 -25.5t-54 25.5t-22 61.5q0 37 22 63t53 26h1z" />
    <glyph glyph-name="plusminus" unicode="&#xb1;" horiz-adv-x="596" 
d="M270 567v-194h-230v-55h230v-201h56v201h230v55h-230v194h-56zM40 55v-55h516v55h-516z" />
    <glyph glyph-name="twosuperior" unicode="&#xb2;" horiz-adv-x="278" 
d="M30 263h222v52h-139v2l30 37q47 55 75 102t28 95q0 46 -27.5 76.5t-80.5 30.5q-31 0 -57.5 -10t-41.5 -25l17 -44q15 12 31 19.5t35 7.5q28 0 44 -16t16 -49q0 -41 -27.5 -85t-77.5 -107q-4 -5 -6 -7l-41 -50v-29z" />
    <glyph glyph-name="threesuperior" unicode="&#xb3;" horiz-adv-x="278" 
d="M59 589q29 21 62 21q53 0 53 -52q0 -30 -26.5 -46.5t-53.5 -17.5h-6v-42h7q42 0 65.5 -19.5t23.5 -56.5q0 -33 -20.5 -51.5t-51.5 -18.5q-21 0 -38.5 6t-30.5 14l-14 -47q37 -21 82 -21q62 0 98.5 34t36.5 86q0 39 -22.5 65t-52.5 33v2q30 13 46.5 36.5t16.5 52.5
q0 39 -26.5 65t-74.5 26q-26 0 -49 -7.5t-38 -18.5z" />
    <glyph glyph-name="acute" unicode="&#xb4;" horiz-adv-x="300" 
d="M188 675l-77 -135h50l105 135h-78z" />
    <glyph glyph-name="mu" unicode="&#xb5;" horiz-adv-x="398" 
d="M344 484h-77v-337q0 -12 -4 -27.5t-12 -28.5q-21 -33 -56 -33q-22 0 -35.5 11t-20 30t-8.5 40.5t-2 52.5v292h-77v-676h72l-2 216h2q7 -15 24 -22t36 -7q33 0 55 17t35 39h2l5 -51h67q0 10 -1 38q-3 57 -3 94v352z" />
    <glyph glyph-name="paragraph" unicode="&#xb6;" horiz-adv-x="401" 
d="M233 -50v674h59v-674h50v718q-45 6 -89 6q-110 0 -166.5 -61.5t-56.5 -159.5q3 -45 18.5 -79t37.5 -56.5t46.5 -33t44.5 -10.5h6v-324h50z" />
    <glyph glyph-name="periodcentered" unicode="&#xb7;" horiz-adv-x="194" 
d="M97 214q23 0 37 15.5t14 41.5t-14 41.5t-37 15.5q-21 0 -36 -16.5t-15 -40.5q0 -25 14.5 -41t35.5 -16h1z" />
    <glyph glyph-name="periodcentered" unicode="&#x2219;" horiz-adv-x="194" 
d="M97 214q23 0 37 15.5t14 41.5t-14 41.5t-37 15.5q-21 0 -36 -16.5t-15 -40.5q0 -25 14.5 -41t35.5 -16h1z" />
    <glyph glyph-name="cedilla" unicode="&#xb8;" horiz-adv-x="300" 
d="M144 5l-40 -86q31 -3 50 -14t19 -30q0 -16 -10 -23t-26 -7q-26 0 -50 15l-16 -42q32 -18 67 -18q37 0 64 19.5t27 59.5q0 27 -19.5 47t-45.5 24l28 55h-48z" />
    <glyph glyph-name="onesuperior" unicode="&#xb9;" horiz-adv-x="278" 
d="M193 263v390h-51l-95 -48l11 -48l73 39h2v-333h60z" />
    <glyph glyph-name="ordmasculine" unicode="&#xba;" horiz-adv-x="302" 
d="M153 588q-50 0 -84.5 -43t-34.5 -122q0 -80 32.5 -122.5t83.5 -42.5q49 0 83 40.5t34 125.5q0 81 -29.5 122.5t-83.5 41.5h-1zM151 543q18 0 29.5 -11t18 -28.5t9 -38t2.5 -42.5t-2.5 -42.5t-9 -38t-18 -28.5t-29.5 -11q-29 0 -43.5 36.5t-14.5 83.5q0 19 3 40.5t10 39
t18 29t26 11.5h1z" />
    <glyph glyph-name="guillemotright" unicode="&#xbb;" horiz-adv-x="354" 
d="M125 252l-104 -174h64l101 174l-103 174h-62zM268 252l-104 -174h63l102 174l-103 174h-62z" />
    <glyph glyph-name="onequarter" unicode="&#xbc;" horiz-adv-x="613" 
d="M537 0v106h46v47h-46v240h-60l-144 -251v-36h147v-106h57zM480 153h-87v2l55 102l21 42q8 16 13 27h2q0 -7 -1 -16q-3 -36 -3 -57v-100zM177 263v390h-52l-94 -48l10 -48l74 39h2v-333h60zM156 -8l340 666h-49l-340 -666h49z" />
    <glyph glyph-name="onehalf" unicode="&#xbd;" horiz-adv-x="613" 
d="M161 263v390h-51l-95 -48l11 -48l73 39h2v-333h60zM132 -8l340 666h-49l-340 -666h49zM355 0h223v52h-140v2l30 37q46 53 74.5 101t28.5 96q0 46 -27 76.5t-81 30.5q-31 0 -57.5 -10.5t-40.5 -24.5l16 -44q15 12 31 19.5t35 7.5q28 0 44 -16t16 -49q0 -41 -27.5 -85
t-77.5 -107q-4 -5 -6 -7l-41 -50v-29z" />
    <glyph glyph-name="threequarters" unicode="&#xbe;" horiz-adv-x="613" 
d="M57 589q14 10 29 15.5t34 5.5q24 0 38 -13.5t14 -38.5q0 -30 -26 -46.5t-53 -17.5h-7v-42h8q42 0 65 -19.5t23 -56.5q0 -33 -20 -51.5t-51 -18.5q-21 0 -39 6t-31 14l-13 -47q16 -9 37.5 -15t44.5 -6q62 0 98.5 34t36.5 86q0 39 -23 65t-53 33v2q30 13 47 36.5t17 52.5
q0 39 -26.5 65t-74.5 26q-26 0 -49 -7.5t-39 -18.5zM173 -8l340 666h-49l-340 -666h49zM539 0v106h47v47h-47v240h-59l-144 -251v-36h147v-106h56zM483 153h-88v2l55 102q11 20 26 50q3 6 9 19h2q-4 -34 -4 -73v-100z" />
    <glyph glyph-name="questiondown" unicode="&#xbf;" horiz-adv-x="309" 
d="M175 496q-23 0 -36.5 -15.5t-13.5 -40.5q0 -24 14 -40t37 -16q22 0 35.5 16t13.5 40q0 25 -13.5 40.5t-35.5 15.5h-1zM137 302l1 -17q2 -20 2 -38q0 -33 -8.5 -62t-28.5 -63q-2 -4 -14 -23q-30 -48 -45.5 -83.5t-15.5 -77.5q0 -59 34.5 -98.5t104.5 -39.5q30 0 58 8
t42 18l-17 60q-12 -8 -30 -13.5t-36 -5.5q-35 0 -56 20t-21 61q0 34 12 62t39 74l8 13q45 75 45 151q0 20 -3 39l-2 15h-69z" />
    <glyph glyph-name="Agrave" unicode="&#xc0;" horiz-adv-x="435" 
d="M290 202l45 -202h76l-150 674h-85l-154 -674h74l45 202h149zM152 264l35 171q7 35 14 75t13 79h4q8 -48 14.5 -86t12.5 -68l35 -171h-128zM77 823l129 -113h57l-99 113h-87z" />
    <glyph glyph-name="Aacute" unicode="&#xc1;" horiz-adv-x="435" 
d="M290 202l45 -202h76l-150 674h-85l-154 -674h74l45 202h149zM152 264l35 171q7 35 14 75t13 79h4q8 -48 14.5 -86t12.5 -68l35 -171h-128zM300 823l-99 -113h58l129 113h-88z" />
    <glyph glyph-name="Acircumflex" unicode="&#xc2;" horiz-adv-x="435" 
d="M290 202l45 -202h76l-150 674h-85l-154 -674h74l45 202h149zM152 264l35 171q7 35 14 75t13 79h4q8 -48 14.5 -86t12.5 -68l35 -171h-128zM193 823l-82 -113h61l47 73h2l48 -73h62l-83 113h-55z" />
    <glyph glyph-name="Atilde" unicode="&#xc3;" horiz-adv-x="435" 
d="M290 202l45 -202h76l-150 674h-85l-154 -674h74l45 202h149zM152 264l35 171q7 35 14 75t13 79h4q8 -48 14.5 -86t12.5 -68l35 -171h-128zM156 718q5 39 24 39q11 0 33 -14l4 -3q28 -17 49 -17q32 0 47 22t15 63h-40q-4 -36 -27 -36q-13 0 -38 16l-1 1q-13 9 -24 13
t-24 4q-27 0 -43 -23t-16 -65h41z" />
    <glyph glyph-name="Adieresis" unicode="&#xc4;" horiz-adv-x="435" 
d="M290 202l45 -202h76l-150 674h-85l-154 -674h74l45 202h149zM152 264l35 171q7 35 14 75t13 79h4q8 -48 14.5 -86t12.5 -68l35 -171h-128zM143 725q19 0 30 12.5t11 32.5t-11 32.5t-30 12.5q-18 0 -30 -13t-12 -32q0 -20 12 -32.5t29 -12.5h1zM298 725q19 0 30.5 12.5
t11.5 32.5t-11.5 32.5t-30.5 12.5q-17 0 -29.5 -13t-12.5 -32q0 -20 12 -32.5t29 -12.5h1z" />
    <glyph glyph-name="Aring" unicode="&#xc5;" horiz-adv-x="435" 
d="M290 202l45 -202h76l-148 665q22 9 35.5 29.5t13.5 44.5q0 36 -25 60.5t-68 24.5q-42 0 -68.5 -25.5t-26.5 -60.5q0 -25 14 -44.5t36 -27.5l-152 -666h74l44 202h150zM218 790q21 0 33.5 -14.5t12.5 -36.5q0 -24 -12.5 -39t-33.5 -15t-33.5 15.5t-12.5 36.5q0 22 12 37.5
t33 15.5h1zM150 264l36 177q21 93 27 147h4q10 -68 26 -147l36 -177h-129z" />
    <glyph glyph-name="AE" unicode="&#xc6;" horiz-adv-x="556" 
d="M83 0l63 222h134l13 -222h247l1 67h-179l-14 249h165v65h-171l-13 226h186v67h-304l-203 -674h75zM162 284l53 193q12 42 25.5 91.5t13.5 51.5h5l6 -131l9 -205h-112z" />
    <glyph glyph-name="Ccedilla" unicode="&#xc7;" horiz-adv-x="396" 
d="M342 77q-13 -6 -32 -10.5t-39 -4.5q-32 0 -60.5 14.5t-50.5 46.5t-34.5 85.5t-12.5 127.5t13.5 127.5t36.5 86t50 47.5t56 15q23 0 37.5 -3.5t30.5 -10.5l17 65q-26 17 -84 17q-42 0 -84 -18.5t-77 -59.5t-56 -109.5t-21 -163.5q0 -152 52 -235.5t139 -96.5l-36 -77
q31 -3 50 -14t19 -30q0 -16 -10.5 -23t-25.5 -7q-25 0 -50 14l-16 -41q30 -18 67 -18t64 19.5t27 58.5q0 28 -19.5 48t-45.5 24l22 44q54 0 85 17z" />
    <glyph glyph-name="Egrave" unicode="&#xc8;" horiz-adv-x="354" 
d="M306 385h-169v222h180v67h-257v-674h269v67h-192v253h169v65zM53 823l129 -113h58l-99 113h-88z" />
    <glyph glyph-name="Eacute" unicode="&#xc9;" horiz-adv-x="354" 
d="M306 385h-169v222h180v67h-257v-674h269v67h-192v253h169v65zM264 823l-99 -113h57l129 113h-87z" />
    <glyph glyph-name="Ecircumflex" unicode="&#xca;" horiz-adv-x="354" 
d="M306 385h-169v222h180v67h-257v-674h269v67h-192v253h169v65zM162 823l-82 -113h60l48 73h2l47 -73h62l-83 113h-54z" />
    <glyph glyph-name="Edieresis" unicode="&#xcb;" horiz-adv-x="354" 
d="M306 385h-169v222h180v67h-257v-674h269v67h-192v253h169v65zM115 725q19 0 30 12.5t11 32.5t-11 32.5t-30 12.5q-18 0 -30 -13t-12 -32q0 -20 12 -32.5t29 -12.5h1zM270 725q19 0 30.5 12.5t11.5 32.5t-11.5 32.5t-30.5 12.5q-17 0 -29.5 -13t-12.5 -32q0 -20 12 -32.5
t29 -12.5h1z" />
    <glyph glyph-name="Igrave" unicode="&#xcc;" horiz-adv-x="199" 
d="M60 674v-674h77v674h-77zM-45 823l129 -113h58l-99 113h-88z" />
    <glyph glyph-name="Iacute" unicode="&#xcd;" horiz-adv-x="199" 
d="M60 674v-674h77v674h-77zM172 823l-99 -113h58l129 113h-88z" />
    <glyph glyph-name="Icircumflex" unicode="&#xce;" horiz-adv-x="199" 
d="M60 674v-674h77v674h-77zM72 823l-82 -113h61l47 73h2l48 -73h62l-83 113h-55z" />
    <glyph glyph-name="Idieresis" unicode="&#xcf;" horiz-adv-x="199" 
d="M60 674v-674h77v674h-77zM22 725q19 0 30.5 12.5t11.5 32.5t-11.5 32.5t-30.5 12.5q-18 0 -30 -13t-12 -32q0 -20 12 -32.5t29 -12.5h1zM177 725q20 0 31 12.5t11 32.5t-11.5 32.5t-30.5 12.5q-17 0 -29 -13t-12 -32q0 -20 11.5 -32.5t28.5 -12.5h1z" />
    <glyph glyph-name="Eth" unicode="&#xd0;" horiz-adv-x="453" 
d="M0 323h69v-322q31 -7 86 -7q59 0 106 18t79 54q37 39 59 108t22 177q0 102 -24.5 170.5t-66.5 104.5q-57 51 -158 51q-61 0 -103 -13v-284h-69v-57zM247 380h-102v230q22 4 36 4q81 0 121 -67t40 -196q0 -83 -13.5 -140.5t-37 -91t-53 -47.5t-63.5 -14q-18 0 -30 2v263
h102v57z" />
    <glyph glyph-name="Ntilde" unicode="&#xd1;" horiz-adv-x="465" 
d="M130 0v233q0 104 -1.5 178.5t-6.5 141.5h2q28 -98 80 -229l128 -324h73v674h-69v-241q0 -86 2 -155.5t7 -154.5h-2q-15 48 -35 102t-51 133l-124 316h-73v-674h70zM171 718q5 39 24 39q11 0 34 -16l2 -1q30 -17 49 -17q32 0 47 22t15 63h-40q-3 -36 -26 -36q-12 0 -34 14
l-6 3q-25 17 -47 17q-59 0 -59 -88h41z" />
    <glyph glyph-name="Ograve" unicode="&#xd2;" horiz-adv-x="446" 
d="M84 823l129 -113h58l-99 113h-88zM220 -8q41 0 76.5 19.5t62 62t41 109.5t14.5 159q0 161 -48.5 250.5t-135.5 89.5q-90 0 -144 -90t-54 -254q0 -167 50.5 -256.5t136.5 -89.5h1zM223 60q-31 0 -52.5 23t-34.5 63t-18.5 89t-5.5 103t5.5 102.5t18.5 88t34.5 62.5t52.5 23
q32 0 53.5 -24t34 -64t18 -88t5.5 -99q0 -53 -5.5 -102t-18 -89.5t-34 -64t-52.5 -23.5h-1z" />
    <glyph glyph-name="Oacute" unicode="&#xd3;" horiz-adv-x="446" 
d="M306 823l-99 -113h57l129 113h-87zM220 -8q41 0 76.5 19.5t62 62t41 109.5t14.5 159q0 161 -48.5 250.5t-135.5 89.5q-90 0 -144 -90t-54 -254q0 -167 50.5 -256.5t136.5 -89.5h1zM223 60q-31 0 -52.5 23t-34.5 63t-18.5 89t-5.5 103t5.5 102.5t18.5 88t34.5 62.5
t52.5 23q32 0 53.5 -24t34 -64t18 -88t5.5 -99q0 -53 -5.5 -102t-18 -89.5t-34 -64t-52.5 -23.5h-1z" />
    <glyph glyph-name="Ocircumflex" unicode="&#xd4;" horiz-adv-x="446" 
d="M195 823l-82 -113h61l47 73h2l48 -73h62l-84 113h-54zM220 -8q41 0 76.5 19.5t62 62t41 109.5t14.5 159q0 161 -48.5 250.5t-135.5 89.5q-90 0 -144 -90t-54 -254q0 -167 50.5 -256.5t136.5 -89.5h1zM223 60q-31 0 -52.5 23t-34.5 63t-18.5 89t-5.5 103t5.5 102.5
t18.5 88t34.5 62.5t52.5 23q32 0 53.5 -24t34 -64t18 -88t5.5 -99q0 -53 -5.5 -102t-18 -89.5t-34 -64t-52.5 -23.5h-1z" />
    <glyph glyph-name="Otilde" unicode="&#xd5;" horiz-adv-x="446" 
d="M158 718q5 39 24 39q11 0 34 -16l2 -1q30 -17 49 -17q32 0 47.5 22t15.5 63h-40q-4 -36 -27 -36q-13 0 -38 16l-1 1q-13 9 -24 13t-24 4q-59 0 -59 -88h41zM220 -8q41 0 76.5 19.5t62 62t41 109.5t14.5 159q0 161 -48.5 250.5t-135.5 89.5q-90 0 -144 -90t-54 -254
q0 -167 50.5 -256.5t136.5 -89.5h1zM223 60q-31 0 -52.5 23t-34.5 63t-18.5 89t-5.5 103t5.5 102.5t18.5 88t34.5 62.5t52.5 23q32 0 53.5 -24t34 -64t18 -88t5.5 -99q0 -53 -5.5 -102t-18 -89.5t-34 -64t-52.5 -23.5h-1z" />
    <glyph glyph-name="Odieresis" unicode="&#xd6;" horiz-adv-x="446" 
d="M220 -8q41 0 76.5 19.5t62 62t41 109.5t14.5 159q0 161 -48.5 250.5t-135.5 89.5q-90 0 -144 -90t-54 -254q0 -167 50.5 -256.5t136.5 -89.5h1zM223 60q-31 0 -52.5 23t-34.5 63t-18.5 89t-5.5 103t5.5 102.5t18.5 88t34.5 62.5t52.5 23q32 0 53.5 -24t34 -64t18 -88
t5.5 -99q0 -53 -5.5 -102t-18 -89.5t-34 -64t-52.5 -23.5h-1zM145 725q19 0 30 12.5t11 32.5t-11 32.5t-30 12.5q-18 0 -30 -13t-12 -32q0 -20 12 -32.5t29 -12.5h1zM300 725q19 0 30.5 12.5t11.5 32.5t-11.5 32.5t-30.5 12.5q-18 0 -30 -13t-12 -32q0 -20 12 -32.5
t29 -12.5h1z" />
    <glyph glyph-name="multiply" unicode="&#xd7;" horiz-adv-x="596" 
d="M40 486l219 -223l-219 -222l38 -41l220 224l219 -224l38 41l-219 221l220 224l-37 40l-222 -225l-220 225z" />
    <glyph glyph-name="Oslash" unicode="&#xd8;" horiz-adv-x="446" 
d="M86 -37l34 74q21 -23 48 -34t55 -11q40 0 74.5 20t61 62.5t41 109.5t14.5 159q0 81 -13 146.5t-40 110.5l40 91l-46 20l-30 -70q-42 41 -101 41q-86 0 -139 -90t-53 -254q0 -168 53 -257l-42 -95zM129 172h-2q-12 38 -15.5 78.5t-3.5 87.5q0 53 6.5 102.5t20 88.5t36 62
t52.5 23q21 0 39 -12t31 -32zM317 507h2q11 -39 14.5 -80t3.5 -88q0 -55 -6 -104t-19 -88.5t-35.5 -63t-53.5 -23.5q-47 0 -74 50z" />
    <glyph glyph-name="Ugrave" unicode="&#xd9;" horiz-adv-x="457" 
d="M59 674v-449q0 -120 44 -176.5t123 -56.5q80 0 126 58.5t46 183.5v440h-77v-452q0 -85 -24 -123.5t-69 -38.5q-42 0 -67 38t-25 124v452h-77zM102 823l129 -113h58l-99 113h-88z" />
    <glyph glyph-name="Uacute" unicode="&#xda;" horiz-adv-x="457" 
d="M59 674v-449q0 -120 44 -176.5t123 -56.5q80 0 126 58.5t46 183.5v440h-77v-452q0 -85 -24 -123.5t-69 -38.5q-42 0 -67 38t-25 124v452h-77zM301 823l-99 -113h58l129 113h-88z" />
    <glyph glyph-name="Ucircumflex" unicode="&#xdb;" horiz-adv-x="457" 
d="M59 674v-449q0 -120 44 -176.5t123 -56.5q80 0 126 58.5t46 183.5v440h-77v-452q0 -85 -24 -123.5t-69 -38.5q-42 0 -67 38t-25 124v452h-77zM203 823l-82 -113h60l48 73h2l48 -73h61l-83 113h-54z" />
    <glyph glyph-name="Udieresis" unicode="&#xdc;" horiz-adv-x="457" 
d="M59 674v-449q0 -120 44 -176.5t123 -56.5q80 0 126 58.5t46 183.5v440h-77v-452q0 -85 -24 -123.5t-69 -38.5q-42 0 -67 38t-25 124v452h-77zM151 725q19 0 30 12.5t11 32.5t-11 32.5t-30 12.5q-18 0 -30 -13t-12 -32q0 -20 12 -32.5t29 -12.5h1zM306 725q19 0 30.5 12.5
t11.5 32.5t-11.5 32.5t-30.5 12.5q-17 0 -29.5 -13t-12.5 -32q0 -20 12 -32.5t29 -12.5h1z" />
    <glyph glyph-name="Yacute" unicode="&#xdd;" horiz-adv-x="394" 
d="M235 0v288l155 386h-81l-57 -166q-33 -94 -49 -155h-2q-20 68 -50 152l-60 169h-81l148 -389v-285h77zM282 823l-99 -113h58l129 113h-88z" />
    <glyph glyph-name="Thorn" unicode="&#xde;" horiz-adv-x="396" 
d="M60 0h76v164q17 -3 38 -3q83 0 139.5 52t56.5 149q0 85 -49 134q-49 48 -134 48q-31 0 -51 -3v133h-76v-674zM136 477q15 4 41 4q62 0 89 -33.5t27 -90.5q0 -62 -32.5 -97t-89.5 -35q-23 0 -35 4v248z" />
    <glyph glyph-name="germandbls" unicode="&#xdf;" horiz-adv-x="430" 
d="M131 0v445q0 104 25.5 147.5t69.5 43.5q13 0 27 -4.5t26.5 -15.5t20 -30.5t7.5 -48.5t-9 -48q-36 -17 -58 -49t-22 -71q0 -38 14.5 -65t44.5 -61q26 -31 39 -55t13 -54q0 -34 -22.5 -57t-60.5 -23q-40 0 -65 13l-13 -60q13 -7 34 -11t45 -4q65 0 110.5 40t45.5 110
q0 42 -16.5 76.5t-50.5 73.5q-24 29 -34.5 47t-10.5 42q0 26 17.5 47.5t48.5 33.5q10 15 17 37.5t7 44.5q0 76 -43 116t-104 40q-70 0 -117 -44q-32 -30 -47.5 -80t-15.5 -126v-450h77z" />
    <glyph glyph-name="agrave" unicode="&#xe0;" horiz-adv-x="364" 
d="M59 675l104 -135h51l-77 135h-78zM310 319q0 84 -34 128.5t-105 44.5q-33 0 -64.5 -9.5t-48.5 -22.5l17 -54q38 25 80 25q43 0 60 -28.5t17 -81.5v-15q-42 0 -79 -11t-65 -32q-62 -47 -62 -133q0 -61 33 -99.5t82 -38.5q30 0 55 15.5t41 43.5h3l5 -51h70q-3 21 -4 46.5
t-1 63.5v209zM234 152q0 -18 -2 -27q-6 -35 -26 -54t-46 -19q-23 0 -41 21.5t-18 64.5q0 37 14 60t35 34t42 14.5t42 3.5v-98z" />
    <glyph glyph-name="aacute" unicode="&#xe1;" horiz-adv-x="364" 
d="M222 675l-77 -135h50l105 135h-78zM310 319q0 84 -34 128.5t-105 44.5q-33 0 -64.5 -9.5t-48.5 -22.5l17 -54q38 25 80 25q43 0 60 -28.5t17 -81.5v-15q-42 0 -79 -11t-65 -32q-62 -47 -62 -133q0 -61 33 -99.5t82 -38.5q30 0 55 15.5t41 43.5h3l5 -51h70q-3 21 -4 46.5
t-1 63.5v209zM234 152q0 -18 -2 -27q-6 -35 -26 -54t-46 -19q-23 0 -41 21.5t-18 64.5q0 37 14 60t35 34t42 14.5t42 3.5v-98z" />
    <glyph glyph-name="acircumflex" unicode="&#xe2;" horiz-adv-x="364" 
d="M157 675l-77 -135h52l46 85h2l45 -85h54l-79 135h-43zM310 319q0 84 -34 128.5t-105 44.5q-33 0 -64.5 -9.5t-48.5 -22.5l17 -54q38 25 80 25q43 0 60 -28.5t17 -81.5v-15q-42 0 -79 -11t-65 -32q-62 -47 -62 -133q0 -61 33 -99.5t82 -38.5q30 0 55 15.5t41 43.5h3l5 -51
h70q-3 21 -4 46.5t-1 63.5v209zM234 152q0 -18 -2 -27q-6 -35 -26 -54t-46 -19q-23 0 -41 21.5t-18 64.5q0 37 14 60t35 34t42 14.5t42 3.5v-98z" />
    <glyph glyph-name="atilde" unicode="&#xe3;" horiz-adv-x="364" 
d="M115 555q3 41 24 41q13 0 39 -17q13 -8 24.5 -13t24.5 -5q31 0 46 22.5t15 61.5h-38q-1 -21 -7.5 -29t-18.5 -8q-10 0 -31 13q-5 3 -8 4l-5 3q-13 8 -22.5 11.5t-21.5 3.5q-29 0 -45 -25t-16 -63h40zM310 319q0 84 -34 128.5t-105 44.5q-33 0 -64.5 -9.5t-48.5 -22.5
l17 -54q38 25 80 25q43 0 60 -28.5t17 -81.5v-15q-42 0 -79 -11t-65 -32q-62 -47 -62 -133q0 -61 33 -99.5t82 -38.5q30 0 55 15.5t41 43.5h3l5 -51h70q-3 21 -4 46.5t-1 63.5v209zM234 152q0 -18 -2 -27q-6 -35 -26 -54t-46 -19q-23 0 -41 21.5t-18 64.5q0 37 14 60t35 34
t42 14.5t42 3.5v-98z" />
    <glyph glyph-name="adieresis" unicode="&#xe4;" horiz-adv-x="364" 
d="M310 319q0 84 -34 128.5t-105 44.5q-33 0 -64.5 -9.5t-48.5 -22.5l17 -54q38 25 80 25q43 0 60 -28.5t17 -81.5v-15q-42 0 -79 -11t-65 -32q-62 -47 -62 -133q0 -61 33 -99.5t82 -38.5q30 0 55 15.5t41 43.5h3l5 -51h70q-3 21 -4 46.5t-1 63.5v209zM234 152q0 -18 -2 -27
q-6 -35 -26 -54t-46 -19q-23 0 -41 21.5t-18 64.5q0 37 14 60t35 34t42 14.5t42 3.5v-98zM106 556q18 0 30 13t12 31q0 19 -12.5 32t-29.5 13q-19 0 -31.5 -13t-12.5 -32q0 -18 12.5 -31t30.5 -13h1zM259 556q18 0 30 13t12 31q0 19 -12 32t-30 13t-31 -13t-13 -32
q0 -18 13 -31t30 -13h1z" />
    <glyph glyph-name="aring" unicode="&#xe5;" horiz-adv-x="364" 
d="M181 707q-43 0 -68 -25.5t-25 -63.5q0 -36 25.5 -60.5t67.5 -24.5q40 0 65.5 24.5t25.5 61.5q0 38 -24.5 63t-65.5 25h-1zM181 672q22 0 34.5 -15t12.5 -37t-12.5 -37t-34.5 -15q-21 0 -34 15.5t-13 34.5q0 22 12.5 38t33.5 16h1zM310 319q0 84 -34 128.5t-105 44.5
q-33 0 -64.5 -9.5t-48.5 -22.5l17 -54q38 25 80 25q43 0 60 -28.5t17 -81.5v-15q-42 0 -79 -11t-65 -32q-62 -47 -62 -133q0 -61 33 -99.5t82 -38.5q30 0 55 15.5t41 43.5h3l5 -51h70q-3 21 -4 46.5t-1 63.5v209zM234 152q0 -18 -2 -27q-6 -35 -26 -54t-46 -19
q-23 0 -41 21.5t-18 64.5q0 37 14 60t35 34t42 14.5t42 3.5v-98z" />
    <glyph glyph-name="ae" unicode="&#xe6;" horiz-adv-x="561" 
d="M531 241q0 9 1 19v18q0 42 -7.5 80.5t-24 68.5t-42 47.5t-59.5 17.5q-38 0 -70 -23t-48 -64h-2q-10 44 -40.5 65.5t-70.5 21.5q-30 0 -60.5 -9.5t-50.5 -23.5l17 -53q16 11 36.5 18t41.5 7q41 0 61 -28t20 -74v-27q-89 0 -148 -43.5t-59 -126.5q0 -63 33.5 -101.5
t85.5 -38.5q44 0 76 24.5t48 68.5h2q14 -44 51 -68.5t82 -24.5q32 0 60 6t51 21l-13 55q-37 -21 -82 -21q-25 0 -45.5 9t-35.5 30t-23.5 58t-8.5 91h224zM234 154q0 -19 -3 -28q-6 -34 -25.5 -53.5t-44.5 -19.5q-26 0 -44.5 21t-18.5 63q0 36 14.5 59t36 34.5t43 15
t42.5 3.5v-95zM308 296q2 55 23 96t58 41q29 0 49 -34.5t20 -102.5h-150z" />
    <glyph glyph-name="ccedilla" unicode="&#xe7;" horiz-adv-x="301" 
d="M280 72q-23 -14 -56 -14q-53 0 -83.5 48t-30.5 133q0 78 29 132.5t83 54.5q17 0 31 -4t24 -9l15 63q-11 6 -30 10.5t-38 4.5q-44 0 -80 -19.5t-60.5 -54t-37.5 -80.5t-13 -98q0 -103 36 -164t100 -76l-35 -80q32 -3 50 -13.5t18 -29.5q0 -17 -10 -24t-26 -7q-26 0 -50 15
l-16 -42q32 -18 67 -18q37 0 64 19.5t27 59.5q0 27 -19.5 47t-45.5 24l22 44q22 1 42.5 6t34.5 13z" />
    <glyph glyph-name="egrave" unicode="&#xe8;" horiz-adv-x="363" 
d="M69 675l105 -135h51l-77 135h-79zM333 235q1 12 1 43q0 43 -8 81.5t-24.5 68t-43 47t-62.5 17.5q-73 0 -118 -69t-45 -186q0 -113 45.5 -178t130.5 -65q29 0 57.5 6t48.5 17l-12 57q-33 -19 -80 -19q-23 0 -43 8t-36 27.5t-26 55t-10 89.5h225zM109 292q3 55 23.5 97.5
t55.5 42.5q30 0 51 -35t21 -105h-151z" />
    <glyph glyph-name="eacute" unicode="&#xe9;" horiz-adv-x="363" 
d="M238 675l-77 -135h50l105 135h-78zM333 235q1 12 1 43q0 43 -8 81.5t-24.5 68t-43 47t-62.5 17.5q-73 0 -118 -69t-45 -186q0 -113 45.5 -178t130.5 -65q29 0 57.5 6t48.5 17l-12 57q-33 -19 -80 -19q-23 0 -43 8t-36 27.5t-26 55t-10 89.5h225zM109 292q3 55 23.5 97.5
t55.5 42.5q30 0 51 -35t21 -105h-151z" />
    <glyph glyph-name="ecircumflex" unicode="&#xea;" horiz-adv-x="363" 
d="M172 675l-77 -135h52l45 85h2l46 -85h54l-79 135h-43zM333 235q1 12 1 43q0 43 -8 81.5t-24.5 68t-43 47t-62.5 17.5q-73 0 -118 -69t-45 -186q0 -113 45.5 -178t130.5 -65q29 0 57.5 6t48.5 17l-12 57q-33 -19 -80 -19q-23 0 -43 8t-36 27.5t-26 55t-10 89.5h225z
M109 292q3 55 23.5 97.5t55.5 42.5q30 0 51 -35t21 -105h-151z" />
    <glyph glyph-name="edieresis" unicode="&#xeb;" horiz-adv-x="363" 
d="M333 235q1 12 1 43q0 43 -8 81.5t-24.5 68t-43 47t-62.5 17.5q-73 0 -118 -69t-45 -186q0 -113 45.5 -178t130.5 -65q29 0 57.5 6t48.5 17l-12 57q-33 -19 -80 -19q-23 0 -43 8t-36 27.5t-26 55t-10 89.5h225zM109 292q3 55 23.5 97.5t55.5 42.5q30 0 51 -35t21 -105
h-151zM121 556q18 0 30 13t12 31q0 19 -12 32t-30 13q-19 0 -31.5 -13t-12.5 -32q0 -18 12.5 -31t30.5 -13h1zM275 556q18 0 30 13t12 31q0 19 -12.5 32t-29.5 13q-19 0 -31.5 -13t-12.5 -32q0 -18 12.5 -31t30.5 -13h1z" />
    <glyph glyph-name="igrave" unicode="&#xec;" horiz-adv-x="184" 
d="M-28 675l105 -135h51l-77 135h-79zM131 0v484h-77v-484h77z" />
    <glyph glyph-name="iacute" unicode="&#xed;" horiz-adv-x="184" 
d="M130 675l-76 -135h50l105 135h-79zM131 0v484h-77v-484h77z" />
    <glyph glyph-name="icircumflex" unicode="&#xee;" horiz-adv-x="184" 
d="M71 675l-78 -135h52l46 85h2l46 -85h53l-79 135h-42zM131 0v484h-77v-484h77z" />
    <glyph glyph-name="idieresis" unicode="&#xef;" horiz-adv-x="184" 
d="M16 556q18 0 30 13t12 31q0 19 -12 32t-30 13t-31 -13t-13 -32q0 -18 13 -31t30 -13h1zM170 556q18 0 30 13t12 31q0 19 -12 32t-30 13t-31 -13t-13 -32q0 -18 12.5 -31t30.5 -13h1zM131 0v484h-77v-484h77z" />
    <glyph glyph-name="eth" unicode="&#xf0;" horiz-adv-x="381" 
d="M191 53q-24 0 -40 17.5t-25 45.5t-12.5 60t-3.5 67q0 30 3.5 61.5t12.5 60.5t25 47.5t41 18.5q26 0 41.5 -13.5t22.5 -35.5q10 -26 12.5 -60t2.5 -85q0 -32 -3.5 -63t-12 -58.5t-24.5 -45t-39 -17.5h-1zM80 508l94 52q40 -45 59 -86l-2 -3q-20 15 -54 15
q-59 -4 -101 -66.5t-42 -178.5q0 -121 43 -185t112 -64q29 0 57.5 13.5t51.5 44t37 80.5t14 118q0 131 -40 217q-31 68 -80 126l84 48l-20 34l-91 -52q-30 34 -84 82l-45 -41l19 -19q38 -37 52 -54l-84 -48z" />
    <glyph glyph-name="ntilde" unicode="&#xf1;" horiz-adv-x="405" 
d="M139 555q3 41 24 41q11 0 35 -14l4 -3q13 -8 24.5 -13t23.5 -5q31 0 46.5 23t15.5 61h-39q-1 -21 -7 -29t-19 -8q-10 0 -31 13q-5 3 -8 4l-2 1q-13 8 -23.5 12.5t-23.5 4.5q-28 0 -44 -25t-16 -63h40zM54 0h77v305q0 25 3 43q7 38 27.5 58.5t45.5 20.5q38 0 52.5 -32
t14.5 -83v-312h77v325q0 84 -32 125.5t-85 41.5q-37 0 -66 -18t-45 -48h-2l-4 58h-67q1 -21 2 -40q2 -51 2 -85v-359z" />
    <glyph glyph-name="ograve" unicode="&#xf2;" horiz-adv-x="383" 
d="M69 675l104 -135h51l-77 135h-78zM191 -8q29 0 57 13.5t51.5 43t37.5 78t14 115.5q0 121 -44 185.5t-112 64.5q-32 0 -61 -14.5t-52 -45.5t-36 -79t-13 -112q0 -122 44 -185.5t113 -63.5h1zM192 53q-25 0 -41.5 17.5t-25.5 45t-12.5 60t-3.5 66.5q0 32 3.5 64t12.5 60
t25.5 46t40.5 18t40 -17.5t25 -46t12.5 -60.5t3.5 -64q0 -33 -3.5 -65t-12 -60t-24.5 -46t-39 -18h-1z" />
    <glyph glyph-name="oacute" unicode="&#xf3;" horiz-adv-x="383" 
d="M236 675l-77 -135h51l104 135h-78zM191 -8q29 0 57 13.5t51.5 43t37.5 78t14 115.5q0 121 -44 185.5t-112 64.5q-32 0 -61 -14.5t-52 -45.5t-36 -79t-13 -112q0 -122 44 -185.5t113 -63.5h1zM192 53q-25 0 -41.5 17.5t-25.5 45t-12.5 60t-3.5 66.5q0 32 3.5 64t12.5 60
t25.5 46t40.5 18t40 -17.5t25 -46t12.5 -60.5t3.5 -64q0 -33 -3.5 -65t-12 -60t-24.5 -46t-39 -18h-1z" />
    <glyph glyph-name="ocircumflex" unicode="&#xf4;" horiz-adv-x="383" 
d="M170 675l-78 -135h52l46 85h2l46 -85h53l-79 135h-42zM191 -8q29 0 57 13.5t51.5 43t37.5 78t14 115.5q0 121 -44 185.5t-112 64.5q-32 0 -61 -14.5t-52 -45.5t-36 -79t-13 -112q0 -122 44 -185.5t113 -63.5h1zM192 53q-25 0 -41.5 17.5t-25.5 45t-12.5 60t-3.5 66.5
q0 32 3.5 64t12.5 60t25.5 46t40.5 18t40 -17.5t25 -46t12.5 -60.5t3.5 -64q0 -33 -3.5 -65t-12 -60t-24.5 -46t-39 -18h-1z" />
    <glyph glyph-name="otilde" unicode="&#xf5;" horiz-adv-x="383" 
d="M125 555q3 41 24 41q11 0 35 -14l4 -3q13 -8 24.5 -13t24.5 -5q30 0 45.5 23t15.5 61h-39q-1 -21 -7 -29t-18 -8q-10 0 -30 12l-10 5q-2 1 -3 2q-14 8 -23 12t-22 4q-29 0 -45 -25t-16 -63h40zM191 -8q29 0 57 13.5t51.5 43t37.5 78t14 115.5q0 121 -44 185.5t-112 64.5
q-32 0 -61 -14.5t-52 -45.5t-36 -79t-13 -112q0 -122 44 -185.5t113 -63.5h1zM192 53q-25 0 -41.5 17.5t-25.5 45t-12.5 60t-3.5 66.5q0 32 3.5 64t12.5 60t25.5 46t40.5 18t40 -17.5t25 -46t12.5 -60.5t3.5 -64q0 -33 -3.5 -65t-12 -60t-24.5 -46t-39 -18h-1z" />
    <glyph glyph-name="odieresis" unicode="&#xf6;" horiz-adv-x="383" 
d="M191 -8q29 0 57 13.5t51.5 43t37.5 78t14 115.5q0 121 -44 185.5t-112 64.5q-32 0 -61 -14.5t-52 -45.5t-36 -79t-13 -112q0 -122 44 -185.5t113 -63.5h1zM192 53q-25 0 -41.5 17.5t-25.5 45t-12.5 60t-3.5 66.5q0 32 3.5 64t12.5 60t25.5 46t40.5 18t40 -17.5t25 -46
t12.5 -60.5t3.5 -64q0 -33 -3.5 -65t-12 -60t-24.5 -46t-39 -18h-1zM115 556q18 0 30 13t12 31q0 19 -12 32t-30 13t-31 -13t-13 -32q0 -18 13 -31t30 -13h1zM269 556q18 0 30 13t12 31q0 19 -12 32t-30 13t-31 -13t-13 -32q0 -18 12.5 -31t30.5 -13h1z" />
    <glyph glyph-name="divide" unicode="&#xf7;" horiz-adv-x="596" 
d="M298 397q21 0 33 12.5t12 33.5t-12 34t-33 13q-20 0 -32 -13.5t-12 -33.5t12 -33t31 -13h1zM555 240v54h-516v-54h516zM297 44q21 0 33 12.5t12 33.5t-12 34t-33 13q-20 0 -32 -13.5t-12 -33.5t12 -33t31 -13h1z" />
    <glyph glyph-name="oslash" unicode="&#xf8;" horiz-adv-x="383" 
d="M192 492q-31 0 -59.5 -14.5t-51 -45.5t-35.5 -79t-13 -112q0 -120 44 -185l-31 -64l39 -25l26 53q35 -28 81 -28q28 0 56 13.5t51.5 43t37.5 78t14 115.5q0 119 -44 183l34 68l-42 22l-25 -53q-37 30 -81 30h-1zM123 131l-2 1q-7 27 -10 55t-3 55q0 31 3.5 62.5t12.5 60
t26 47t43 18.5q38 0 51 -32zM264 348l2 -1q12 -49 12 -110q0 -31 -3.5 -62.5t-13 -59t-26.5 -45t-42 -17.5q-34 0 -49 31z" />
    <glyph glyph-name="ugrave" unicode="&#xf9;" horiz-adv-x="398" 
d="M86 675l104 -135h51l-77 135h-78zM344 484h-77v-319q0 -27 -4 -44q-4 -22 -21.5 -43t-47.5 -21q-37 0 -51 34t-14 98v295h-77v-306q0 -93 28 -139.5t90 -46.5q35 0 62.5 18.5t41.5 40.5h2l5 -51h67q0 10 -1 38q-3 57 -3 94v352z" />
    <glyph glyph-name="uacute" unicode="&#xfa;" horiz-adv-x="398" 
d="M245 675l-77 -135h51l104 135h-78zM344 484h-77v-319q0 -27 -4 -44q-4 -22 -21.5 -43t-47.5 -21q-37 0 -51 34t-14 98v295h-77v-306q0 -93 28 -139.5t90 -46.5q35 0 62.5 18.5t41.5 40.5h2l5 -51h67q0 10 -1 38q-3 57 -3 94v352z" />
    <glyph glyph-name="ucircumflex" unicode="&#xfb;" horiz-adv-x="398" 
d="M177 675l-78 -135h52l46 85h2l46 -85h53l-79 135h-42zM344 484h-77v-319q0 -27 -4 -44q-4 -22 -21.5 -43t-47.5 -21q-37 0 -51 34t-14 98v295h-77v-306q0 -93 28 -139.5t90 -46.5q35 0 62.5 18.5t41.5 40.5h2l5 -51h67q0 10 -1 38q-3 57 -3 94v352z" />
    <glyph glyph-name="udieresis" unicode="&#xfc;" horiz-adv-x="398" 
d="M126 556q18 0 29.5 13t11.5 31q0 19 -12 32t-29 13q-19 0 -31.5 -13t-12.5 -32q0 -18 12.5 -31t30.5 -13h1zM279 556q18 0 30 13t12 31q0 19 -12 32t-30 13t-31 -13t-13 -32q0 -18 12.5 -31t30.5 -13h1zM344 484h-77v-319q0 -27 -4 -44q-4 -22 -21.5 -43t-47.5 -21
q-37 0 -51 34t-14 98v295h-77v-306q0 -93 28 -139.5t90 -46.5q35 0 62.5 18.5t41.5 40.5h2l5 -51h67q0 10 -1 38q-3 57 -3 94v352z" />
    <glyph glyph-name="yacute" unicode="&#xfd;" horiz-adv-x="346" 
d="M224 675l-76 -135h50l105 135h-79zM13 484l122 -447q2 -6 2 -18q0 -9 -5 -24q-7 -20 -18.5 -42t-25.5 -39q-33 -42 -68 -61l28 -66q17 8 40.5 26.5t46.5 47.5q39 50 66 125.5t54 186.5l79 311h-76l-57 -279q-7 -29 -12.5 -55.5t-8.5 -43.5h-2q-1 7 -6 30q-8 44 -14 70
l-64 278h-81z" />
    <glyph glyph-name="thorn" unicode="&#xfe;" horiz-adv-x="399" 
d="M53 665v-857h77v241h2q11 -25 33 -41t56 -16q27 0 52.5 14.5t46.5 45.5t33.5 79t12.5 112q0 117 -37.5 183t-97.5 66q-32 0 -57.5 -16t-42.5 -52h-2v241h-76zM130 301q0 25 3 37q4 35 24.5 61.5t46.5 26.5q43 0 63.5 -51.5t20.5 -132.5q0 -39 -4.5 -72t-14 -59t-26 -40.5
t-39.5 -14.5q-20 0 -40 18t-30 63q-4 15 -4 40v124z" />
    <glyph glyph-name="ydieresis" unicode="&#xff;" horiz-adv-x="346" 
d="M101 556q18 0 29.5 13t11.5 31q0 19 -12 32t-29 13q-19 0 -32 -13t-13 -32q0 -18 13 -31t31 -13h1zM254 556q18 0 30 13t12 31q0 19 -12 32t-30 13t-31 -13t-13 -32q0 -18 12.5 -31t30.5 -13h1zM13 484l122 -447q2 -6 2 -18q0 -9 -5 -24q-7 -20 -18.5 -42t-25.5 -39
q-33 -42 -68 -61l28 -66q17 8 40.5 26.5t46.5 47.5q39 50 66 125.5t54 186.5l79 311h-76l-57 -279q-7 -29 -12.5 -55.5t-8.5 -43.5h-2q-1 7 -6 30q-8 44 -14 70l-64 278h-81z" />
    </font>
</defs>
</svg>
